G04 #@! TF.GenerationSoftware,KiCad,Pcbnew,7.0.9*
G04 #@! TF.CreationDate,2024-03-05T13:31:22-05:00*
G04 #@! TF.ProjectId,sleep_rig_pcb,736c6565-705f-4726-9967-5f7063622e6b,rev?*
G04 #@! TF.SameCoordinates,Original*
G04 #@! TF.FileFunction,Legend,Top*
G04 #@! TF.FilePolarity,Positive*
%FSLAX46Y46*%
G04 Gerber Fmt 4.6, Leading zero omitted, Abs format (unit mm)*
G04 Created by KiCad (PCBNEW 7.0.9) date 2024-03-05 13:31:22*
%MOMM*%
%LPD*%
G01*
G04 APERTURE LIST*
G04 Aperture macros list*
%AMRoundRect*
0 Rectangle with rounded corners*
0 $1 Rounding radius*
0 $2 $3 $4 $5 $6 $7 $8 $9 X,Y pos of 4 corners*
0 Add a 4 corners polygon primitive as box body*
4,1,4,$2,$3,$4,$5,$6,$7,$8,$9,$2,$3,0*
0 Add four circle primitives for the rounded corners*
1,1,$1+$1,$2,$3*
1,1,$1+$1,$4,$5*
1,1,$1+$1,$6,$7*
1,1,$1+$1,$8,$9*
0 Add four rect primitives between the rounded corners*
20,1,$1+$1,$2,$3,$4,$5,0*
20,1,$1+$1,$4,$5,$6,$7,0*
20,1,$1+$1,$6,$7,$8,$9,0*
20,1,$1+$1,$8,$9,$2,$3,0*%
G04 Aperture macros list end*
%ADD10C,0.150000*%
%ADD11C,0.127000*%
%ADD12C,0.200000*%
%ADD13C,0.152400*%
%ADD14C,0.508000*%
%ADD15C,0.400000*%
%ADD16C,0.120000*%
%ADD17RoundRect,0.102000X-0.800000X1.400000X-0.800000X-1.400000X0.800000X-1.400000X0.800000X1.400000X0*%
%ADD18R,1.498600X3.911600*%
%ADD19RoundRect,0.102000X-0.795000X0.795000X-0.795000X-0.795000X0.795000X-0.795000X0.795000X0.795000X0*%
%ADD20C,1.794000*%
%ADD21C,2.159000*%
%ADD22RoundRect,0.102000X-0.900000X0.900000X-0.900000X-0.900000X0.900000X-0.900000X0.900000X0.900000X0*%
%ADD23C,2.004000*%
%ADD24R,0.914400X3.251200*%
%ADD25C,1.727200*%
%ADD26RoundRect,0.076200X0.892500X-0.892500X0.892500X0.892500X-0.892500X0.892500X-0.892500X-0.892500X0*%
%ADD27C,1.937400*%
%ADD28R,1.700000X1.700000*%
%ADD29O,1.700000X1.700000*%
%ADD30O,4.013200X1.498600*%
%ADD31O,1.498600X4.013200*%
%ADD32R,1.600000X1.600000*%
%ADD33O,1.600000X1.600000*%
%ADD34O,5.204000X2.704000*%
%ADD35O,4.704000X2.454000*%
%ADD36O,2.454000X4.704000*%
G04 APERTURE END LIST*
D10*
X23233095Y-86814819D02*
X23233095Y-85814819D01*
X23233095Y-85814819D02*
X23471190Y-85814819D01*
X23471190Y-85814819D02*
X23614047Y-85862438D01*
X23614047Y-85862438D02*
X23709285Y-85957676D01*
X23709285Y-85957676D02*
X23756904Y-86052914D01*
X23756904Y-86052914D02*
X23804523Y-86243390D01*
X23804523Y-86243390D02*
X23804523Y-86386247D01*
X23804523Y-86386247D02*
X23756904Y-86576723D01*
X23756904Y-86576723D02*
X23709285Y-86671961D01*
X23709285Y-86671961D02*
X23614047Y-86767200D01*
X23614047Y-86767200D02*
X23471190Y-86814819D01*
X23471190Y-86814819D02*
X23233095Y-86814819D01*
X23875951Y-136451133D02*
X23114047Y-136451133D01*
X23494999Y-136070180D02*
X23494999Y-136832085D01*
X182267200Y-81467731D02*
X182314819Y-81324874D01*
X182314819Y-81324874D02*
X182314819Y-81086779D01*
X182314819Y-81086779D02*
X182267200Y-80991541D01*
X182267200Y-80991541D02*
X182219580Y-80943922D01*
X182219580Y-80943922D02*
X182124342Y-80896303D01*
X182124342Y-80896303D02*
X182029104Y-80896303D01*
X182029104Y-80896303D02*
X181933866Y-80943922D01*
X181933866Y-80943922D02*
X181886247Y-80991541D01*
X181886247Y-80991541D02*
X181838628Y-81086779D01*
X181838628Y-81086779D02*
X181791009Y-81277255D01*
X181791009Y-81277255D02*
X181743390Y-81372493D01*
X181743390Y-81372493D02*
X181695771Y-81420112D01*
X181695771Y-81420112D02*
X181600533Y-81467731D01*
X181600533Y-81467731D02*
X181505295Y-81467731D01*
X181505295Y-81467731D02*
X181410057Y-81420112D01*
X181410057Y-81420112D02*
X181362438Y-81372493D01*
X181362438Y-81372493D02*
X181314819Y-81277255D01*
X181314819Y-81277255D02*
X181314819Y-81039160D01*
X181314819Y-81039160D02*
X181362438Y-80896303D01*
X182314819Y-80467731D02*
X181314819Y-80467731D01*
X181314819Y-80467731D02*
X181314819Y-80229636D01*
X181314819Y-80229636D02*
X181362438Y-80086779D01*
X181362438Y-80086779D02*
X181457676Y-79991541D01*
X181457676Y-79991541D02*
X181552914Y-79943922D01*
X181552914Y-79943922D02*
X181743390Y-79896303D01*
X181743390Y-79896303D02*
X181886247Y-79896303D01*
X181886247Y-79896303D02*
X182076723Y-79943922D01*
X182076723Y-79943922D02*
X182171961Y-79991541D01*
X182171961Y-79991541D02*
X182267200Y-80086779D01*
X182267200Y-80086779D02*
X182314819Y-80229636D01*
X182314819Y-80229636D02*
X182314819Y-80467731D01*
X182029104Y-79515350D02*
X182029104Y-79039160D01*
X182314819Y-79610588D02*
X181314819Y-79277255D01*
X181314819Y-79277255D02*
X182314819Y-78943922D01*
X164554819Y-22047030D02*
X164554819Y-22523220D01*
X164554819Y-22523220D02*
X165031009Y-22570839D01*
X165031009Y-22570839D02*
X164983390Y-22523220D01*
X164983390Y-22523220D02*
X164935771Y-22427982D01*
X164935771Y-22427982D02*
X164935771Y-22189887D01*
X164935771Y-22189887D02*
X164983390Y-22094649D01*
X164983390Y-22094649D02*
X165031009Y-22047030D01*
X165031009Y-22047030D02*
X165126247Y-21999411D01*
X165126247Y-21999411D02*
X165364342Y-21999411D01*
X165364342Y-21999411D02*
X165459580Y-22047030D01*
X165459580Y-22047030D02*
X165507200Y-22094649D01*
X165507200Y-22094649D02*
X165554819Y-22189887D01*
X165554819Y-22189887D02*
X165554819Y-22427982D01*
X165554819Y-22427982D02*
X165507200Y-22523220D01*
X165507200Y-22523220D02*
X165459580Y-22570839D01*
X164554819Y-21713696D02*
X165554819Y-21380363D01*
X165554819Y-21380363D02*
X164554819Y-21047030D01*
X176282438Y-81134398D02*
X176234819Y-81229636D01*
X176234819Y-81229636D02*
X176234819Y-81372493D01*
X176234819Y-81372493D02*
X176282438Y-81515350D01*
X176282438Y-81515350D02*
X176377676Y-81610588D01*
X176377676Y-81610588D02*
X176472914Y-81658207D01*
X176472914Y-81658207D02*
X176663390Y-81705826D01*
X176663390Y-81705826D02*
X176806247Y-81705826D01*
X176806247Y-81705826D02*
X176996723Y-81658207D01*
X176996723Y-81658207D02*
X177091961Y-81610588D01*
X177091961Y-81610588D02*
X177187200Y-81515350D01*
X177187200Y-81515350D02*
X177234819Y-81372493D01*
X177234819Y-81372493D02*
X177234819Y-81277255D01*
X177234819Y-81277255D02*
X177187200Y-81134398D01*
X177187200Y-81134398D02*
X177139580Y-81086779D01*
X177139580Y-81086779D02*
X176806247Y-81086779D01*
X176806247Y-81086779D02*
X176806247Y-81277255D01*
X177234819Y-80658207D02*
X176234819Y-80658207D01*
X176234819Y-80658207D02*
X177234819Y-80086779D01*
X177234819Y-80086779D02*
X176234819Y-80086779D01*
X177234819Y-79610588D02*
X176234819Y-79610588D01*
X176234819Y-79610588D02*
X176234819Y-79372493D01*
X176234819Y-79372493D02*
X176282438Y-79229636D01*
X176282438Y-79229636D02*
X176377676Y-79134398D01*
X176377676Y-79134398D02*
X176472914Y-79086779D01*
X176472914Y-79086779D02*
X176663390Y-79039160D01*
X176663390Y-79039160D02*
X176806247Y-79039160D01*
X176806247Y-79039160D02*
X176996723Y-79086779D01*
X176996723Y-79086779D02*
X177091961Y-79134398D01*
X177091961Y-79134398D02*
X177187200Y-79229636D01*
X177187200Y-79229636D02*
X177234819Y-79372493D01*
X177234819Y-79372493D02*
X177234819Y-79610588D01*
X170634819Y-21951792D02*
X170158628Y-22285125D01*
X170634819Y-22523220D02*
X169634819Y-22523220D01*
X169634819Y-22523220D02*
X169634819Y-22142268D01*
X169634819Y-22142268D02*
X169682438Y-22047030D01*
X169682438Y-22047030D02*
X169730057Y-21999411D01*
X169730057Y-21999411D02*
X169825295Y-21951792D01*
X169825295Y-21951792D02*
X169968152Y-21951792D01*
X169968152Y-21951792D02*
X170063390Y-21999411D01*
X170063390Y-21999411D02*
X170111009Y-22047030D01*
X170111009Y-22047030D02*
X170158628Y-22142268D01*
X170158628Y-22142268D02*
X170158628Y-22523220D01*
X170111009Y-21523220D02*
X170111009Y-21189887D01*
X170634819Y-21047030D02*
X170634819Y-21523220D01*
X170634819Y-21523220D02*
X169634819Y-21523220D01*
X169634819Y-21523220D02*
X169634819Y-21047030D01*
X170587200Y-20666077D02*
X170634819Y-20523220D01*
X170634819Y-20523220D02*
X170634819Y-20285125D01*
X170634819Y-20285125D02*
X170587200Y-20189887D01*
X170587200Y-20189887D02*
X170539580Y-20142268D01*
X170539580Y-20142268D02*
X170444342Y-20094649D01*
X170444342Y-20094649D02*
X170349104Y-20094649D01*
X170349104Y-20094649D02*
X170253866Y-20142268D01*
X170253866Y-20142268D02*
X170206247Y-20189887D01*
X170206247Y-20189887D02*
X170158628Y-20285125D01*
X170158628Y-20285125D02*
X170111009Y-20475601D01*
X170111009Y-20475601D02*
X170063390Y-20570839D01*
X170063390Y-20570839D02*
X170015771Y-20618458D01*
X170015771Y-20618458D02*
X169920533Y-20666077D01*
X169920533Y-20666077D02*
X169825295Y-20666077D01*
X169825295Y-20666077D02*
X169730057Y-20618458D01*
X169730057Y-20618458D02*
X169682438Y-20570839D01*
X169682438Y-20570839D02*
X169634819Y-20475601D01*
X169634819Y-20475601D02*
X169634819Y-20237506D01*
X169634819Y-20237506D02*
X169682438Y-20094649D01*
X170111009Y-19666077D02*
X170111009Y-19332744D01*
X170634819Y-19189887D02*
X170634819Y-19666077D01*
X170634819Y-19666077D02*
X169634819Y-19666077D01*
X169634819Y-19666077D02*
X169634819Y-19189887D01*
X169634819Y-18904172D02*
X169634819Y-18332744D01*
X170634819Y-18618458D02*
X169634819Y-18618458D01*
X167074819Y-81515350D02*
X166074819Y-81515350D01*
X166074819Y-81515350D02*
X166074819Y-81277255D01*
X166074819Y-81277255D02*
X166122438Y-81134398D01*
X166122438Y-81134398D02*
X166217676Y-81039160D01*
X166217676Y-81039160D02*
X166312914Y-80991541D01*
X166312914Y-80991541D02*
X166503390Y-80943922D01*
X166503390Y-80943922D02*
X166646247Y-80943922D01*
X166646247Y-80943922D02*
X166836723Y-80991541D01*
X166836723Y-80991541D02*
X166931961Y-81039160D01*
X166931961Y-81039160D02*
X167027200Y-81134398D01*
X167027200Y-81134398D02*
X167074819Y-81277255D01*
X167074819Y-81277255D02*
X167074819Y-81515350D01*
X167074819Y-79991541D02*
X167074819Y-80562969D01*
X167074819Y-80277255D02*
X166074819Y-80277255D01*
X166074819Y-80277255D02*
X166217676Y-80372493D01*
X166217676Y-80372493D02*
X166312914Y-80467731D01*
X166312914Y-80467731D02*
X166360533Y-80562969D01*
X166074819Y-79372493D02*
X166074819Y-79277255D01*
X166074819Y-79277255D02*
X166122438Y-79182017D01*
X166122438Y-79182017D02*
X166170057Y-79134398D01*
X166170057Y-79134398D02*
X166265295Y-79086779D01*
X166265295Y-79086779D02*
X166455771Y-79039160D01*
X166455771Y-79039160D02*
X166693866Y-79039160D01*
X166693866Y-79039160D02*
X166884342Y-79086779D01*
X166884342Y-79086779D02*
X166979580Y-79134398D01*
X166979580Y-79134398D02*
X167027200Y-79182017D01*
X167027200Y-79182017D02*
X167074819Y-79277255D01*
X167074819Y-79277255D02*
X167074819Y-79372493D01*
X167074819Y-79372493D02*
X167027200Y-79467731D01*
X167027200Y-79467731D02*
X166979580Y-79515350D01*
X166979580Y-79515350D02*
X166884342Y-79562969D01*
X166884342Y-79562969D02*
X166693866Y-79610588D01*
X166693866Y-79610588D02*
X166455771Y-79610588D01*
X166455771Y-79610588D02*
X166265295Y-79562969D01*
X166265295Y-79562969D02*
X166170057Y-79515350D01*
X166170057Y-79515350D02*
X166122438Y-79467731D01*
X166122438Y-79467731D02*
X166074819Y-79372493D01*
X23875951Y-113591133D02*
X23114047Y-113591133D01*
X174694819Y-81515350D02*
X173694819Y-81515350D01*
X173694819Y-81515350D02*
X173694819Y-81277255D01*
X173694819Y-81277255D02*
X173742438Y-81134398D01*
X173742438Y-81134398D02*
X173837676Y-81039160D01*
X173837676Y-81039160D02*
X173932914Y-80991541D01*
X173932914Y-80991541D02*
X174123390Y-80943922D01*
X174123390Y-80943922D02*
X174266247Y-80943922D01*
X174266247Y-80943922D02*
X174456723Y-80991541D01*
X174456723Y-80991541D02*
X174551961Y-81039160D01*
X174551961Y-81039160D02*
X174647200Y-81134398D01*
X174647200Y-81134398D02*
X174694819Y-81277255D01*
X174694819Y-81277255D02*
X174694819Y-81515350D01*
X174694819Y-79991541D02*
X174694819Y-80562969D01*
X174694819Y-80277255D02*
X173694819Y-80277255D01*
X173694819Y-80277255D02*
X173837676Y-80372493D01*
X173837676Y-80372493D02*
X173932914Y-80467731D01*
X173932914Y-80467731D02*
X173980533Y-80562969D01*
X173694819Y-79658207D02*
X173694819Y-79039160D01*
X173694819Y-79039160D02*
X174075771Y-79372493D01*
X174075771Y-79372493D02*
X174075771Y-79229636D01*
X174075771Y-79229636D02*
X174123390Y-79134398D01*
X174123390Y-79134398D02*
X174171009Y-79086779D01*
X174171009Y-79086779D02*
X174266247Y-79039160D01*
X174266247Y-79039160D02*
X174504342Y-79039160D01*
X174504342Y-79039160D02*
X174599580Y-79086779D01*
X174599580Y-79086779D02*
X174647200Y-79134398D01*
X174647200Y-79134398D02*
X174694819Y-79229636D01*
X174694819Y-79229636D02*
X174694819Y-79515350D01*
X174694819Y-79515350D02*
X174647200Y-79610588D01*
X174647200Y-79610588D02*
X174599580Y-79658207D01*
X23875951Y-126291133D02*
X23114047Y-126291133D01*
X23875951Y-138991133D02*
X23114047Y-138991133D01*
X152844819Y-80552969D02*
X151844819Y-80552969D01*
X151844819Y-80552969D02*
X151844819Y-80314874D01*
X151844819Y-80314874D02*
X151892438Y-80172017D01*
X151892438Y-80172017D02*
X151987676Y-80076779D01*
X151987676Y-80076779D02*
X152082914Y-80029160D01*
X152082914Y-80029160D02*
X152273390Y-79981541D01*
X152273390Y-79981541D02*
X152416247Y-79981541D01*
X152416247Y-79981541D02*
X152606723Y-80029160D01*
X152606723Y-80029160D02*
X152701961Y-80076779D01*
X152701961Y-80076779D02*
X152797200Y-80172017D01*
X152797200Y-80172017D02*
X152844819Y-80314874D01*
X152844819Y-80314874D02*
X152844819Y-80552969D01*
X151844819Y-79076779D02*
X151844819Y-79552969D01*
X151844819Y-79552969D02*
X152321009Y-79600588D01*
X152321009Y-79600588D02*
X152273390Y-79552969D01*
X152273390Y-79552969D02*
X152225771Y-79457731D01*
X152225771Y-79457731D02*
X152225771Y-79219636D01*
X152225771Y-79219636D02*
X152273390Y-79124398D01*
X152273390Y-79124398D02*
X152321009Y-79076779D01*
X152321009Y-79076779D02*
X152416247Y-79029160D01*
X152416247Y-79029160D02*
X152654342Y-79029160D01*
X152654342Y-79029160D02*
X152749580Y-79076779D01*
X152749580Y-79076779D02*
X152797200Y-79124398D01*
X152797200Y-79124398D02*
X152844819Y-79219636D01*
X152844819Y-79219636D02*
X152844819Y-79457731D01*
X152844819Y-79457731D02*
X152797200Y-79552969D01*
X152797200Y-79552969D02*
X152749580Y-79600588D01*
X23875951Y-103431133D02*
X23114047Y-103431133D01*
X23875951Y-151691133D02*
X23114047Y-151691133D01*
X152569104Y-22570839D02*
X152569104Y-22094649D01*
X152854819Y-22666077D02*
X151854819Y-22332744D01*
X151854819Y-22332744D02*
X152854819Y-21999411D01*
X151854819Y-21475601D02*
X151854819Y-21380363D01*
X151854819Y-21380363D02*
X151902438Y-21285125D01*
X151902438Y-21285125D02*
X151950057Y-21237506D01*
X151950057Y-21237506D02*
X152045295Y-21189887D01*
X152045295Y-21189887D02*
X152235771Y-21142268D01*
X152235771Y-21142268D02*
X152473866Y-21142268D01*
X152473866Y-21142268D02*
X152664342Y-21189887D01*
X152664342Y-21189887D02*
X152759580Y-21237506D01*
X152759580Y-21237506D02*
X152807200Y-21285125D01*
X152807200Y-21285125D02*
X152854819Y-21380363D01*
X152854819Y-21380363D02*
X152854819Y-21475601D01*
X152854819Y-21475601D02*
X152807200Y-21570839D01*
X152807200Y-21570839D02*
X152759580Y-21618458D01*
X152759580Y-21618458D02*
X152664342Y-21666077D01*
X152664342Y-21666077D02*
X152473866Y-21713696D01*
X152473866Y-21713696D02*
X152235771Y-21713696D01*
X152235771Y-21713696D02*
X152045295Y-21666077D01*
X152045295Y-21666077D02*
X151950057Y-21618458D01*
X151950057Y-21618458D02*
X151902438Y-21570839D01*
X151902438Y-21570839D02*
X151854819Y-21475601D01*
X23875951Y-96446133D02*
X23114047Y-96446133D01*
X144949104Y-22570839D02*
X144949104Y-22094649D01*
X145234819Y-22666077D02*
X144234819Y-22332744D01*
X144234819Y-22332744D02*
X145234819Y-21999411D01*
X144234819Y-21761315D02*
X144234819Y-21142268D01*
X144234819Y-21142268D02*
X144615771Y-21475601D01*
X144615771Y-21475601D02*
X144615771Y-21332744D01*
X144615771Y-21332744D02*
X144663390Y-21237506D01*
X144663390Y-21237506D02*
X144711009Y-21189887D01*
X144711009Y-21189887D02*
X144806247Y-21142268D01*
X144806247Y-21142268D02*
X145044342Y-21142268D01*
X145044342Y-21142268D02*
X145139580Y-21189887D01*
X145139580Y-21189887D02*
X145187200Y-21237506D01*
X145187200Y-21237506D02*
X145234819Y-21332744D01*
X145234819Y-21332744D02*
X145234819Y-21618458D01*
X145234819Y-21618458D02*
X145187200Y-21713696D01*
X145187200Y-21713696D02*
X145139580Y-21761315D01*
X162062438Y-21999411D02*
X162014819Y-22094649D01*
X162014819Y-22094649D02*
X162014819Y-22237506D01*
X162014819Y-22237506D02*
X162062438Y-22380363D01*
X162062438Y-22380363D02*
X162157676Y-22475601D01*
X162157676Y-22475601D02*
X162252914Y-22523220D01*
X162252914Y-22523220D02*
X162443390Y-22570839D01*
X162443390Y-22570839D02*
X162586247Y-22570839D01*
X162586247Y-22570839D02*
X162776723Y-22523220D01*
X162776723Y-22523220D02*
X162871961Y-22475601D01*
X162871961Y-22475601D02*
X162967200Y-22380363D01*
X162967200Y-22380363D02*
X163014819Y-22237506D01*
X163014819Y-22237506D02*
X163014819Y-22142268D01*
X163014819Y-22142268D02*
X162967200Y-21999411D01*
X162967200Y-21999411D02*
X162919580Y-21951792D01*
X162919580Y-21951792D02*
X162586247Y-21951792D01*
X162586247Y-21951792D02*
X162586247Y-22142268D01*
X163014819Y-21523220D02*
X162014819Y-21523220D01*
X162014819Y-21523220D02*
X163014819Y-20951792D01*
X163014819Y-20951792D02*
X162014819Y-20951792D01*
X163014819Y-20475601D02*
X162014819Y-20475601D01*
X162014819Y-20475601D02*
X162014819Y-20237506D01*
X162014819Y-20237506D02*
X162062438Y-20094649D01*
X162062438Y-20094649D02*
X162157676Y-19999411D01*
X162157676Y-19999411D02*
X162252914Y-19951792D01*
X162252914Y-19951792D02*
X162443390Y-19904173D01*
X162443390Y-19904173D02*
X162586247Y-19904173D01*
X162586247Y-19904173D02*
X162776723Y-19951792D01*
X162776723Y-19951792D02*
X162871961Y-19999411D01*
X162871961Y-19999411D02*
X162967200Y-20094649D01*
X162967200Y-20094649D02*
X163014819Y-20237506D01*
X163014819Y-20237506D02*
X163014819Y-20475601D01*
X184807200Y-81420112D02*
X184854819Y-81277255D01*
X184854819Y-81277255D02*
X184854819Y-81039160D01*
X184854819Y-81039160D02*
X184807200Y-80943922D01*
X184807200Y-80943922D02*
X184759580Y-80896303D01*
X184759580Y-80896303D02*
X184664342Y-80848684D01*
X184664342Y-80848684D02*
X184569104Y-80848684D01*
X184569104Y-80848684D02*
X184473866Y-80896303D01*
X184473866Y-80896303D02*
X184426247Y-80943922D01*
X184426247Y-80943922D02*
X184378628Y-81039160D01*
X184378628Y-81039160D02*
X184331009Y-81229636D01*
X184331009Y-81229636D02*
X184283390Y-81324874D01*
X184283390Y-81324874D02*
X184235771Y-81372493D01*
X184235771Y-81372493D02*
X184140533Y-81420112D01*
X184140533Y-81420112D02*
X184045295Y-81420112D01*
X184045295Y-81420112D02*
X183950057Y-81372493D01*
X183950057Y-81372493D02*
X183902438Y-81324874D01*
X183902438Y-81324874D02*
X183854819Y-81229636D01*
X183854819Y-81229636D02*
X183854819Y-80991541D01*
X183854819Y-80991541D02*
X183902438Y-80848684D01*
X184759580Y-79848684D02*
X184807200Y-79896303D01*
X184807200Y-79896303D02*
X184854819Y-80039160D01*
X184854819Y-80039160D02*
X184854819Y-80134398D01*
X184854819Y-80134398D02*
X184807200Y-80277255D01*
X184807200Y-80277255D02*
X184711961Y-80372493D01*
X184711961Y-80372493D02*
X184616723Y-80420112D01*
X184616723Y-80420112D02*
X184426247Y-80467731D01*
X184426247Y-80467731D02*
X184283390Y-80467731D01*
X184283390Y-80467731D02*
X184092914Y-80420112D01*
X184092914Y-80420112D02*
X183997676Y-80372493D01*
X183997676Y-80372493D02*
X183902438Y-80277255D01*
X183902438Y-80277255D02*
X183854819Y-80134398D01*
X183854819Y-80134398D02*
X183854819Y-80039160D01*
X183854819Y-80039160D02*
X183902438Y-79896303D01*
X183902438Y-79896303D02*
X183950057Y-79848684D01*
X184854819Y-78943922D02*
X184854819Y-79420112D01*
X184854819Y-79420112D02*
X183854819Y-79420112D01*
X23875951Y-88826133D02*
X23114047Y-88826133D01*
X155384819Y-80552969D02*
X154384819Y-80552969D01*
X154384819Y-80552969D02*
X154384819Y-80314874D01*
X154384819Y-80314874D02*
X154432438Y-80172017D01*
X154432438Y-80172017D02*
X154527676Y-80076779D01*
X154527676Y-80076779D02*
X154622914Y-80029160D01*
X154622914Y-80029160D02*
X154813390Y-79981541D01*
X154813390Y-79981541D02*
X154956247Y-79981541D01*
X154956247Y-79981541D02*
X155146723Y-80029160D01*
X155146723Y-80029160D02*
X155241961Y-80076779D01*
X155241961Y-80076779D02*
X155337200Y-80172017D01*
X155337200Y-80172017D02*
X155384819Y-80314874D01*
X155384819Y-80314874D02*
X155384819Y-80552969D01*
X154384819Y-79124398D02*
X154384819Y-79314874D01*
X154384819Y-79314874D02*
X154432438Y-79410112D01*
X154432438Y-79410112D02*
X154480057Y-79457731D01*
X154480057Y-79457731D02*
X154622914Y-79552969D01*
X154622914Y-79552969D02*
X154813390Y-79600588D01*
X154813390Y-79600588D02*
X155194342Y-79600588D01*
X155194342Y-79600588D02*
X155289580Y-79552969D01*
X155289580Y-79552969D02*
X155337200Y-79505350D01*
X155337200Y-79505350D02*
X155384819Y-79410112D01*
X155384819Y-79410112D02*
X155384819Y-79219636D01*
X155384819Y-79219636D02*
X155337200Y-79124398D01*
X155337200Y-79124398D02*
X155289580Y-79076779D01*
X155289580Y-79076779D02*
X155194342Y-79029160D01*
X155194342Y-79029160D02*
X154956247Y-79029160D01*
X154956247Y-79029160D02*
X154861009Y-79076779D01*
X154861009Y-79076779D02*
X154813390Y-79124398D01*
X154813390Y-79124398D02*
X154765771Y-79219636D01*
X154765771Y-79219636D02*
X154765771Y-79410112D01*
X154765771Y-79410112D02*
X154813390Y-79505350D01*
X154813390Y-79505350D02*
X154861009Y-79552969D01*
X154861009Y-79552969D02*
X154956247Y-79600588D01*
X141684819Y-80457731D02*
X141684819Y-79886303D01*
X142684819Y-80172017D02*
X141684819Y-80172017D01*
X141684819Y-79648207D02*
X142684819Y-78981541D01*
X141684819Y-78981541D02*
X142684819Y-79648207D01*
X147764819Y-80552969D02*
X146764819Y-80552969D01*
X146764819Y-80552969D02*
X146764819Y-80314874D01*
X146764819Y-80314874D02*
X146812438Y-80172017D01*
X146812438Y-80172017D02*
X146907676Y-80076779D01*
X146907676Y-80076779D02*
X147002914Y-80029160D01*
X147002914Y-80029160D02*
X147193390Y-79981541D01*
X147193390Y-79981541D02*
X147336247Y-79981541D01*
X147336247Y-79981541D02*
X147526723Y-80029160D01*
X147526723Y-80029160D02*
X147621961Y-80076779D01*
X147621961Y-80076779D02*
X147717200Y-80172017D01*
X147717200Y-80172017D02*
X147764819Y-80314874D01*
X147764819Y-80314874D02*
X147764819Y-80552969D01*
X146764819Y-79648207D02*
X146764819Y-79029160D01*
X146764819Y-79029160D02*
X147145771Y-79362493D01*
X147145771Y-79362493D02*
X147145771Y-79219636D01*
X147145771Y-79219636D02*
X147193390Y-79124398D01*
X147193390Y-79124398D02*
X147241009Y-79076779D01*
X147241009Y-79076779D02*
X147336247Y-79029160D01*
X147336247Y-79029160D02*
X147574342Y-79029160D01*
X147574342Y-79029160D02*
X147669580Y-79076779D01*
X147669580Y-79076779D02*
X147717200Y-79124398D01*
X147717200Y-79124398D02*
X147764819Y-79219636D01*
X147764819Y-79219636D02*
X147764819Y-79505350D01*
X147764819Y-79505350D02*
X147717200Y-79600588D01*
X147717200Y-79600588D02*
X147669580Y-79648207D01*
X140144819Y-79981541D02*
X139668628Y-80314874D01*
X140144819Y-80552969D02*
X139144819Y-80552969D01*
X139144819Y-80552969D02*
X139144819Y-80172017D01*
X139144819Y-80172017D02*
X139192438Y-80076779D01*
X139192438Y-80076779D02*
X139240057Y-80029160D01*
X139240057Y-80029160D02*
X139335295Y-79981541D01*
X139335295Y-79981541D02*
X139478152Y-79981541D01*
X139478152Y-79981541D02*
X139573390Y-80029160D01*
X139573390Y-80029160D02*
X139621009Y-80076779D01*
X139621009Y-80076779D02*
X139668628Y-80172017D01*
X139668628Y-80172017D02*
X139668628Y-80552969D01*
X139144819Y-79648207D02*
X140144819Y-78981541D01*
X139144819Y-78981541D02*
X140144819Y-79648207D01*
X23875951Y-111051133D02*
X23114047Y-111051133D01*
X23494999Y-110670180D02*
X23494999Y-111432085D01*
X159522438Y-21999411D02*
X159474819Y-22094649D01*
X159474819Y-22094649D02*
X159474819Y-22237506D01*
X159474819Y-22237506D02*
X159522438Y-22380363D01*
X159522438Y-22380363D02*
X159617676Y-22475601D01*
X159617676Y-22475601D02*
X159712914Y-22523220D01*
X159712914Y-22523220D02*
X159903390Y-22570839D01*
X159903390Y-22570839D02*
X160046247Y-22570839D01*
X160046247Y-22570839D02*
X160236723Y-22523220D01*
X160236723Y-22523220D02*
X160331961Y-22475601D01*
X160331961Y-22475601D02*
X160427200Y-22380363D01*
X160427200Y-22380363D02*
X160474819Y-22237506D01*
X160474819Y-22237506D02*
X160474819Y-22142268D01*
X160474819Y-22142268D02*
X160427200Y-21999411D01*
X160427200Y-21999411D02*
X160379580Y-21951792D01*
X160379580Y-21951792D02*
X160046247Y-21951792D01*
X160046247Y-21951792D02*
X160046247Y-22142268D01*
X160474819Y-21523220D02*
X159474819Y-21523220D01*
X159474819Y-21523220D02*
X160474819Y-20951792D01*
X160474819Y-20951792D02*
X159474819Y-20951792D01*
X160474819Y-20475601D02*
X159474819Y-20475601D01*
X159474819Y-20475601D02*
X159474819Y-20237506D01*
X159474819Y-20237506D02*
X159522438Y-20094649D01*
X159522438Y-20094649D02*
X159617676Y-19999411D01*
X159617676Y-19999411D02*
X159712914Y-19951792D01*
X159712914Y-19951792D02*
X159903390Y-19904173D01*
X159903390Y-19904173D02*
X160046247Y-19904173D01*
X160046247Y-19904173D02*
X160236723Y-19951792D01*
X160236723Y-19951792D02*
X160331961Y-19999411D01*
X160331961Y-19999411D02*
X160427200Y-20094649D01*
X160427200Y-20094649D02*
X160474819Y-20237506D01*
X160474819Y-20237506D02*
X160474819Y-20475601D01*
X150029104Y-22570839D02*
X150029104Y-22094649D01*
X150314819Y-22666077D02*
X149314819Y-22332744D01*
X149314819Y-22332744D02*
X150314819Y-21999411D01*
X150314819Y-21142268D02*
X150314819Y-21713696D01*
X150314819Y-21427982D02*
X149314819Y-21427982D01*
X149314819Y-21427982D02*
X149457676Y-21523220D01*
X149457676Y-21523220D02*
X149552914Y-21618458D01*
X149552914Y-21618458D02*
X149600533Y-21713696D01*
X157924819Y-80552969D02*
X156924819Y-80552969D01*
X156924819Y-80552969D02*
X156924819Y-80314874D01*
X156924819Y-80314874D02*
X156972438Y-80172017D01*
X156972438Y-80172017D02*
X157067676Y-80076779D01*
X157067676Y-80076779D02*
X157162914Y-80029160D01*
X157162914Y-80029160D02*
X157353390Y-79981541D01*
X157353390Y-79981541D02*
X157496247Y-79981541D01*
X157496247Y-79981541D02*
X157686723Y-80029160D01*
X157686723Y-80029160D02*
X157781961Y-80076779D01*
X157781961Y-80076779D02*
X157877200Y-80172017D01*
X157877200Y-80172017D02*
X157924819Y-80314874D01*
X157924819Y-80314874D02*
X157924819Y-80552969D01*
X156924819Y-79648207D02*
X156924819Y-78981541D01*
X156924819Y-78981541D02*
X157924819Y-79410112D01*
X139869104Y-22570839D02*
X139869104Y-22094649D01*
X140154819Y-22666077D02*
X139154819Y-22332744D01*
X139154819Y-22332744D02*
X140154819Y-21999411D01*
X139154819Y-21189887D02*
X139154819Y-21666077D01*
X139154819Y-21666077D02*
X139631009Y-21713696D01*
X139631009Y-21713696D02*
X139583390Y-21666077D01*
X139583390Y-21666077D02*
X139535771Y-21570839D01*
X139535771Y-21570839D02*
X139535771Y-21332744D01*
X139535771Y-21332744D02*
X139583390Y-21237506D01*
X139583390Y-21237506D02*
X139631009Y-21189887D01*
X139631009Y-21189887D02*
X139726247Y-21142268D01*
X139726247Y-21142268D02*
X139964342Y-21142268D01*
X139964342Y-21142268D02*
X140059580Y-21189887D01*
X140059580Y-21189887D02*
X140107200Y-21237506D01*
X140107200Y-21237506D02*
X140154819Y-21332744D01*
X140154819Y-21332744D02*
X140154819Y-21570839D01*
X140154819Y-21570839D02*
X140107200Y-21666077D01*
X140107200Y-21666077D02*
X140059580Y-21713696D01*
X58165951Y-73586133D02*
X57404047Y-73586133D01*
X57784999Y-73205180D02*
X57784999Y-73967085D01*
X164534819Y-80562969D02*
X163534819Y-80562969D01*
X163534819Y-80562969D02*
X163534819Y-80324874D01*
X163534819Y-80324874D02*
X163582438Y-80182017D01*
X163582438Y-80182017D02*
X163677676Y-80086779D01*
X163677676Y-80086779D02*
X163772914Y-80039160D01*
X163772914Y-80039160D02*
X163963390Y-79991541D01*
X163963390Y-79991541D02*
X164106247Y-79991541D01*
X164106247Y-79991541D02*
X164296723Y-80039160D01*
X164296723Y-80039160D02*
X164391961Y-80086779D01*
X164391961Y-80086779D02*
X164487200Y-80182017D01*
X164487200Y-80182017D02*
X164534819Y-80324874D01*
X164534819Y-80324874D02*
X164534819Y-80562969D01*
X164534819Y-79515350D02*
X164534819Y-79324874D01*
X164534819Y-79324874D02*
X164487200Y-79229636D01*
X164487200Y-79229636D02*
X164439580Y-79182017D01*
X164439580Y-79182017D02*
X164296723Y-79086779D01*
X164296723Y-79086779D02*
X164106247Y-79039160D01*
X164106247Y-79039160D02*
X163725295Y-79039160D01*
X163725295Y-79039160D02*
X163630057Y-79086779D01*
X163630057Y-79086779D02*
X163582438Y-79134398D01*
X163582438Y-79134398D02*
X163534819Y-79229636D01*
X163534819Y-79229636D02*
X163534819Y-79420112D01*
X163534819Y-79420112D02*
X163582438Y-79515350D01*
X163582438Y-79515350D02*
X163630057Y-79562969D01*
X163630057Y-79562969D02*
X163725295Y-79610588D01*
X163725295Y-79610588D02*
X163963390Y-79610588D01*
X163963390Y-79610588D02*
X164058628Y-79562969D01*
X164058628Y-79562969D02*
X164106247Y-79515350D01*
X164106247Y-79515350D02*
X164153866Y-79420112D01*
X164153866Y-79420112D02*
X164153866Y-79229636D01*
X164153866Y-79229636D02*
X164106247Y-79134398D01*
X164106247Y-79134398D02*
X164058628Y-79086779D01*
X164058628Y-79086779D02*
X163963390Y-79039160D01*
X23875951Y-100891133D02*
X23114047Y-100891133D01*
X23494999Y-100510180D02*
X23494999Y-101272085D01*
X169614819Y-81515350D02*
X168614819Y-81515350D01*
X168614819Y-81515350D02*
X168614819Y-81277255D01*
X168614819Y-81277255D02*
X168662438Y-81134398D01*
X168662438Y-81134398D02*
X168757676Y-81039160D01*
X168757676Y-81039160D02*
X168852914Y-80991541D01*
X168852914Y-80991541D02*
X169043390Y-80943922D01*
X169043390Y-80943922D02*
X169186247Y-80943922D01*
X169186247Y-80943922D02*
X169376723Y-80991541D01*
X169376723Y-80991541D02*
X169471961Y-81039160D01*
X169471961Y-81039160D02*
X169567200Y-81134398D01*
X169567200Y-81134398D02*
X169614819Y-81277255D01*
X169614819Y-81277255D02*
X169614819Y-81515350D01*
X169614819Y-79991541D02*
X169614819Y-80562969D01*
X169614819Y-80277255D02*
X168614819Y-80277255D01*
X168614819Y-80277255D02*
X168757676Y-80372493D01*
X168757676Y-80372493D02*
X168852914Y-80467731D01*
X168852914Y-80467731D02*
X168900533Y-80562969D01*
X169614819Y-79039160D02*
X169614819Y-79610588D01*
X169614819Y-79324874D02*
X168614819Y-79324874D01*
X168614819Y-79324874D02*
X168757676Y-79420112D01*
X168757676Y-79420112D02*
X168852914Y-79515350D01*
X168852914Y-79515350D02*
X168900533Y-79610588D01*
X58165951Y-78666133D02*
X57404047Y-78666133D01*
X145224819Y-80552969D02*
X144224819Y-80552969D01*
X144224819Y-80552969D02*
X144224819Y-80314874D01*
X144224819Y-80314874D02*
X144272438Y-80172017D01*
X144272438Y-80172017D02*
X144367676Y-80076779D01*
X144367676Y-80076779D02*
X144462914Y-80029160D01*
X144462914Y-80029160D02*
X144653390Y-79981541D01*
X144653390Y-79981541D02*
X144796247Y-79981541D01*
X144796247Y-79981541D02*
X144986723Y-80029160D01*
X144986723Y-80029160D02*
X145081961Y-80076779D01*
X145081961Y-80076779D02*
X145177200Y-80172017D01*
X145177200Y-80172017D02*
X145224819Y-80314874D01*
X145224819Y-80314874D02*
X145224819Y-80552969D01*
X144320057Y-79600588D02*
X144272438Y-79552969D01*
X144272438Y-79552969D02*
X144224819Y-79457731D01*
X144224819Y-79457731D02*
X144224819Y-79219636D01*
X144224819Y-79219636D02*
X144272438Y-79124398D01*
X144272438Y-79124398D02*
X144320057Y-79076779D01*
X144320057Y-79076779D02*
X144415295Y-79029160D01*
X144415295Y-79029160D02*
X144510533Y-79029160D01*
X144510533Y-79029160D02*
X144653390Y-79076779D01*
X144653390Y-79076779D02*
X145224819Y-79648207D01*
X145224819Y-79648207D02*
X145224819Y-79029160D01*
X23875951Y-83746133D02*
X23114047Y-83746133D01*
X23494999Y-83365180D02*
X23494999Y-84127085D01*
X23233095Y-76654819D02*
X23233095Y-75654819D01*
X23233095Y-75654819D02*
X23471190Y-75654819D01*
X23471190Y-75654819D02*
X23614047Y-75702438D01*
X23614047Y-75702438D02*
X23709285Y-75797676D01*
X23709285Y-75797676D02*
X23756904Y-75892914D01*
X23756904Y-75892914D02*
X23804523Y-76083390D01*
X23804523Y-76083390D02*
X23804523Y-76226247D01*
X23804523Y-76226247D02*
X23756904Y-76416723D01*
X23756904Y-76416723D02*
X23709285Y-76511961D01*
X23709285Y-76511961D02*
X23614047Y-76607200D01*
X23614047Y-76607200D02*
X23471190Y-76654819D01*
X23471190Y-76654819D02*
X23233095Y-76654819D01*
X172154819Y-81515350D02*
X171154819Y-81515350D01*
X171154819Y-81515350D02*
X171154819Y-81277255D01*
X171154819Y-81277255D02*
X171202438Y-81134398D01*
X171202438Y-81134398D02*
X171297676Y-81039160D01*
X171297676Y-81039160D02*
X171392914Y-80991541D01*
X171392914Y-80991541D02*
X171583390Y-80943922D01*
X171583390Y-80943922D02*
X171726247Y-80943922D01*
X171726247Y-80943922D02*
X171916723Y-80991541D01*
X171916723Y-80991541D02*
X172011961Y-81039160D01*
X172011961Y-81039160D02*
X172107200Y-81134398D01*
X172107200Y-81134398D02*
X172154819Y-81277255D01*
X172154819Y-81277255D02*
X172154819Y-81515350D01*
X172154819Y-79991541D02*
X172154819Y-80562969D01*
X172154819Y-80277255D02*
X171154819Y-80277255D01*
X171154819Y-80277255D02*
X171297676Y-80372493D01*
X171297676Y-80372493D02*
X171392914Y-80467731D01*
X171392914Y-80467731D02*
X171440533Y-80562969D01*
X171250057Y-79610588D02*
X171202438Y-79562969D01*
X171202438Y-79562969D02*
X171154819Y-79467731D01*
X171154819Y-79467731D02*
X171154819Y-79229636D01*
X171154819Y-79229636D02*
X171202438Y-79134398D01*
X171202438Y-79134398D02*
X171250057Y-79086779D01*
X171250057Y-79086779D02*
X171345295Y-79039160D01*
X171345295Y-79039160D02*
X171440533Y-79039160D01*
X171440533Y-79039160D02*
X171583390Y-79086779D01*
X171583390Y-79086779D02*
X172154819Y-79658207D01*
X172154819Y-79658207D02*
X172154819Y-79039160D01*
X58165951Y-83111133D02*
X57404047Y-83111133D01*
X57784999Y-82730180D02*
X57784999Y-83492085D01*
X156934819Y-22666077D02*
X157934819Y-22332744D01*
X157934819Y-22332744D02*
X156934819Y-21999411D01*
X157934819Y-21666077D02*
X156934819Y-21666077D01*
X157934819Y-21189887D02*
X156934819Y-21189887D01*
X156934819Y-21189887D02*
X157934819Y-20618459D01*
X157934819Y-20618459D02*
X156934819Y-20618459D01*
X57523095Y-86179819D02*
X57523095Y-85179819D01*
X57523095Y-85179819D02*
X57761190Y-85179819D01*
X57761190Y-85179819D02*
X57904047Y-85227438D01*
X57904047Y-85227438D02*
X57999285Y-85322676D01*
X57999285Y-85322676D02*
X58046904Y-85417914D01*
X58046904Y-85417914D02*
X58094523Y-85608390D01*
X58094523Y-85608390D02*
X58094523Y-85751247D01*
X58094523Y-85751247D02*
X58046904Y-85941723D01*
X58046904Y-85941723D02*
X57999285Y-86036961D01*
X57999285Y-86036961D02*
X57904047Y-86132200D01*
X57904047Y-86132200D02*
X57761190Y-86179819D01*
X57761190Y-86179819D02*
X57523095Y-86179819D01*
X173174819Y-22523220D02*
X172174819Y-22523220D01*
X172174819Y-21856554D02*
X172174819Y-21666078D01*
X172174819Y-21666078D02*
X172222438Y-21570840D01*
X172222438Y-21570840D02*
X172317676Y-21475602D01*
X172317676Y-21475602D02*
X172508152Y-21427983D01*
X172508152Y-21427983D02*
X172841485Y-21427983D01*
X172841485Y-21427983D02*
X173031961Y-21475602D01*
X173031961Y-21475602D02*
X173127200Y-21570840D01*
X173127200Y-21570840D02*
X173174819Y-21666078D01*
X173174819Y-21666078D02*
X173174819Y-21856554D01*
X173174819Y-21856554D02*
X173127200Y-21951792D01*
X173127200Y-21951792D02*
X173031961Y-22047030D01*
X173031961Y-22047030D02*
X172841485Y-22094649D01*
X172841485Y-22094649D02*
X172508152Y-22094649D01*
X172508152Y-22094649D02*
X172317676Y-22047030D01*
X172317676Y-22047030D02*
X172222438Y-21951792D01*
X172222438Y-21951792D02*
X172174819Y-21856554D01*
X173174819Y-20427983D02*
X172698628Y-20761316D01*
X173174819Y-20999411D02*
X172174819Y-20999411D01*
X172174819Y-20999411D02*
X172174819Y-20618459D01*
X172174819Y-20618459D02*
X172222438Y-20523221D01*
X172222438Y-20523221D02*
X172270057Y-20475602D01*
X172270057Y-20475602D02*
X172365295Y-20427983D01*
X172365295Y-20427983D02*
X172508152Y-20427983D01*
X172508152Y-20427983D02*
X172603390Y-20475602D01*
X172603390Y-20475602D02*
X172651009Y-20523221D01*
X172651009Y-20523221D02*
X172698628Y-20618459D01*
X172698628Y-20618459D02*
X172698628Y-20999411D01*
X172651009Y-19999411D02*
X172651009Y-19666078D01*
X173174819Y-19523221D02*
X173174819Y-19999411D01*
X173174819Y-19999411D02*
X172174819Y-19999411D01*
X172174819Y-19999411D02*
X172174819Y-19523221D01*
X172651009Y-18761316D02*
X172651009Y-19094649D01*
X173174819Y-19094649D02*
X172174819Y-19094649D01*
X172174819Y-19094649D02*
X172174819Y-18618459D01*
X167094819Y-22618458D02*
X167094819Y-21999411D01*
X167094819Y-21999411D02*
X167475771Y-22332744D01*
X167475771Y-22332744D02*
X167475771Y-22189887D01*
X167475771Y-22189887D02*
X167523390Y-22094649D01*
X167523390Y-22094649D02*
X167571009Y-22047030D01*
X167571009Y-22047030D02*
X167666247Y-21999411D01*
X167666247Y-21999411D02*
X167904342Y-21999411D01*
X167904342Y-21999411D02*
X167999580Y-22047030D01*
X167999580Y-22047030D02*
X168047200Y-22094649D01*
X168047200Y-22094649D02*
X168094819Y-22189887D01*
X168094819Y-22189887D02*
X168094819Y-22475601D01*
X168094819Y-22475601D02*
X168047200Y-22570839D01*
X168047200Y-22570839D02*
X167999580Y-22618458D01*
X167999580Y-21570839D02*
X168047200Y-21523220D01*
X168047200Y-21523220D02*
X168094819Y-21570839D01*
X168094819Y-21570839D02*
X168047200Y-21618458D01*
X168047200Y-21618458D02*
X167999580Y-21570839D01*
X167999580Y-21570839D02*
X168094819Y-21570839D01*
X167094819Y-21189887D02*
X167094819Y-20570840D01*
X167094819Y-20570840D02*
X167475771Y-20904173D01*
X167475771Y-20904173D02*
X167475771Y-20761316D01*
X167475771Y-20761316D02*
X167523390Y-20666078D01*
X167523390Y-20666078D02*
X167571009Y-20618459D01*
X167571009Y-20618459D02*
X167666247Y-20570840D01*
X167666247Y-20570840D02*
X167904342Y-20570840D01*
X167904342Y-20570840D02*
X167999580Y-20618459D01*
X167999580Y-20618459D02*
X168047200Y-20666078D01*
X168047200Y-20666078D02*
X168094819Y-20761316D01*
X168094819Y-20761316D02*
X168094819Y-21047030D01*
X168094819Y-21047030D02*
X168047200Y-21142268D01*
X168047200Y-21142268D02*
X167999580Y-21189887D01*
X167094819Y-20285125D02*
X168094819Y-19951792D01*
X168094819Y-19951792D02*
X167094819Y-19618459D01*
X23875951Y-93906133D02*
X23114047Y-93906133D01*
X23494999Y-93525180D02*
X23494999Y-94287085D01*
X150304819Y-80552969D02*
X149304819Y-80552969D01*
X149304819Y-80552969D02*
X149304819Y-80314874D01*
X149304819Y-80314874D02*
X149352438Y-80172017D01*
X149352438Y-80172017D02*
X149447676Y-80076779D01*
X149447676Y-80076779D02*
X149542914Y-80029160D01*
X149542914Y-80029160D02*
X149733390Y-79981541D01*
X149733390Y-79981541D02*
X149876247Y-79981541D01*
X149876247Y-79981541D02*
X150066723Y-80029160D01*
X150066723Y-80029160D02*
X150161961Y-80076779D01*
X150161961Y-80076779D02*
X150257200Y-80172017D01*
X150257200Y-80172017D02*
X150304819Y-80314874D01*
X150304819Y-80314874D02*
X150304819Y-80552969D01*
X149638152Y-79124398D02*
X150304819Y-79124398D01*
X149257200Y-79362493D02*
X149971485Y-79600588D01*
X149971485Y-79600588D02*
X149971485Y-78981541D01*
X161994819Y-80562969D02*
X160994819Y-80562969D01*
X160994819Y-80562969D02*
X160994819Y-80324874D01*
X160994819Y-80324874D02*
X161042438Y-80182017D01*
X161042438Y-80182017D02*
X161137676Y-80086779D01*
X161137676Y-80086779D02*
X161232914Y-80039160D01*
X161232914Y-80039160D02*
X161423390Y-79991541D01*
X161423390Y-79991541D02*
X161566247Y-79991541D01*
X161566247Y-79991541D02*
X161756723Y-80039160D01*
X161756723Y-80039160D02*
X161851961Y-80086779D01*
X161851961Y-80086779D02*
X161947200Y-80182017D01*
X161947200Y-80182017D02*
X161994819Y-80324874D01*
X161994819Y-80324874D02*
X161994819Y-80562969D01*
X161423390Y-79420112D02*
X161375771Y-79515350D01*
X161375771Y-79515350D02*
X161328152Y-79562969D01*
X161328152Y-79562969D02*
X161232914Y-79610588D01*
X161232914Y-79610588D02*
X161185295Y-79610588D01*
X161185295Y-79610588D02*
X161090057Y-79562969D01*
X161090057Y-79562969D02*
X161042438Y-79515350D01*
X161042438Y-79515350D02*
X160994819Y-79420112D01*
X160994819Y-79420112D02*
X160994819Y-79229636D01*
X160994819Y-79229636D02*
X161042438Y-79134398D01*
X161042438Y-79134398D02*
X161090057Y-79086779D01*
X161090057Y-79086779D02*
X161185295Y-79039160D01*
X161185295Y-79039160D02*
X161232914Y-79039160D01*
X161232914Y-79039160D02*
X161328152Y-79086779D01*
X161328152Y-79086779D02*
X161375771Y-79134398D01*
X161375771Y-79134398D02*
X161423390Y-79229636D01*
X161423390Y-79229636D02*
X161423390Y-79420112D01*
X161423390Y-79420112D02*
X161471009Y-79515350D01*
X161471009Y-79515350D02*
X161518628Y-79562969D01*
X161518628Y-79562969D02*
X161613866Y-79610588D01*
X161613866Y-79610588D02*
X161804342Y-79610588D01*
X161804342Y-79610588D02*
X161899580Y-79562969D01*
X161899580Y-79562969D02*
X161947200Y-79515350D01*
X161947200Y-79515350D02*
X161994819Y-79420112D01*
X161994819Y-79420112D02*
X161994819Y-79229636D01*
X161994819Y-79229636D02*
X161947200Y-79134398D01*
X161947200Y-79134398D02*
X161899580Y-79086779D01*
X161899580Y-79086779D02*
X161804342Y-79039160D01*
X161804342Y-79039160D02*
X161613866Y-79039160D01*
X161613866Y-79039160D02*
X161518628Y-79086779D01*
X161518628Y-79086779D02*
X161471009Y-79134398D01*
X161471009Y-79134398D02*
X161423390Y-79229636D01*
X23875951Y-73586133D02*
X23114047Y-73586133D01*
X23494999Y-73205180D02*
X23494999Y-73967085D01*
X179489104Y-82277255D02*
X179489104Y-81801065D01*
X179774819Y-82372493D02*
X178774819Y-82039160D01*
X178774819Y-82039160D02*
X179774819Y-81705827D01*
X179774819Y-80801065D02*
X179298628Y-81134398D01*
X179774819Y-81372493D02*
X178774819Y-81372493D01*
X178774819Y-81372493D02*
X178774819Y-80991541D01*
X178774819Y-80991541D02*
X178822438Y-80896303D01*
X178822438Y-80896303D02*
X178870057Y-80848684D01*
X178870057Y-80848684D02*
X178965295Y-80801065D01*
X178965295Y-80801065D02*
X179108152Y-80801065D01*
X179108152Y-80801065D02*
X179203390Y-80848684D01*
X179203390Y-80848684D02*
X179251009Y-80896303D01*
X179251009Y-80896303D02*
X179298628Y-80991541D01*
X179298628Y-80991541D02*
X179298628Y-81372493D01*
X179251009Y-80372493D02*
X179251009Y-80039160D01*
X179774819Y-79896303D02*
X179774819Y-80372493D01*
X179774819Y-80372493D02*
X178774819Y-80372493D01*
X178774819Y-80372493D02*
X178774819Y-79896303D01*
X179251009Y-79134398D02*
X179251009Y-79467731D01*
X179774819Y-79467731D02*
X178774819Y-79467731D01*
X178774819Y-79467731D02*
X178774819Y-78991541D01*
X57523095Y-76654819D02*
X57523095Y-75654819D01*
X57523095Y-75654819D02*
X57761190Y-75654819D01*
X57761190Y-75654819D02*
X57904047Y-75702438D01*
X57904047Y-75702438D02*
X57999285Y-75797676D01*
X57999285Y-75797676D02*
X58046904Y-75892914D01*
X58046904Y-75892914D02*
X58094523Y-76083390D01*
X58094523Y-76083390D02*
X58094523Y-76226247D01*
X58094523Y-76226247D02*
X58046904Y-76416723D01*
X58046904Y-76416723D02*
X57999285Y-76511961D01*
X57999285Y-76511961D02*
X57904047Y-76607200D01*
X57904047Y-76607200D02*
X57761190Y-76654819D01*
X57761190Y-76654819D02*
X57523095Y-76654819D01*
X23875951Y-123751133D02*
X23114047Y-123751133D01*
X23494999Y-123370180D02*
X23494999Y-124132085D01*
X58165951Y-88191133D02*
X57404047Y-88191133D01*
X147489104Y-22570839D02*
X147489104Y-22094649D01*
X147774819Y-22666077D02*
X146774819Y-22332744D01*
X146774819Y-22332744D02*
X147774819Y-21999411D01*
X146870057Y-21713696D02*
X146822438Y-21666077D01*
X146822438Y-21666077D02*
X146774819Y-21570839D01*
X146774819Y-21570839D02*
X146774819Y-21332744D01*
X146774819Y-21332744D02*
X146822438Y-21237506D01*
X146822438Y-21237506D02*
X146870057Y-21189887D01*
X146870057Y-21189887D02*
X146965295Y-21142268D01*
X146965295Y-21142268D02*
X147060533Y-21142268D01*
X147060533Y-21142268D02*
X147203390Y-21189887D01*
X147203390Y-21189887D02*
X147774819Y-21761315D01*
X147774819Y-21761315D02*
X147774819Y-21142268D01*
X23875951Y-78666133D02*
X23114047Y-78666133D01*
X142409104Y-22570839D02*
X142409104Y-22094649D01*
X142694819Y-22666077D02*
X141694819Y-22332744D01*
X141694819Y-22332744D02*
X142694819Y-21999411D01*
X142028152Y-21237506D02*
X142694819Y-21237506D01*
X141647200Y-21475601D02*
X142361485Y-21713696D01*
X142361485Y-21713696D02*
X142361485Y-21094649D01*
X23875951Y-149151133D02*
X23114047Y-149151133D01*
X23494999Y-148770180D02*
X23494999Y-149532085D01*
X107039580Y-108801666D02*
X107087200Y-108849285D01*
X107087200Y-108849285D02*
X107134819Y-108992142D01*
X107134819Y-108992142D02*
X107134819Y-109087380D01*
X107134819Y-109087380D02*
X107087200Y-109230237D01*
X107087200Y-109230237D02*
X106991961Y-109325475D01*
X106991961Y-109325475D02*
X106896723Y-109373094D01*
X106896723Y-109373094D02*
X106706247Y-109420713D01*
X106706247Y-109420713D02*
X106563390Y-109420713D01*
X106563390Y-109420713D02*
X106372914Y-109373094D01*
X106372914Y-109373094D02*
X106277676Y-109325475D01*
X106277676Y-109325475D02*
X106182438Y-109230237D01*
X106182438Y-109230237D02*
X106134819Y-109087380D01*
X106134819Y-109087380D02*
X106134819Y-108992142D01*
X106134819Y-108992142D02*
X106182438Y-108849285D01*
X106182438Y-108849285D02*
X106230057Y-108801666D01*
X106134819Y-107944523D02*
X106134819Y-108134999D01*
X106134819Y-108134999D02*
X106182438Y-108230237D01*
X106182438Y-108230237D02*
X106230057Y-108277856D01*
X106230057Y-108277856D02*
X106372914Y-108373094D01*
X106372914Y-108373094D02*
X106563390Y-108420713D01*
X106563390Y-108420713D02*
X106944342Y-108420713D01*
X106944342Y-108420713D02*
X107039580Y-108373094D01*
X107039580Y-108373094D02*
X107087200Y-108325475D01*
X107087200Y-108325475D02*
X107134819Y-108230237D01*
X107134819Y-108230237D02*
X107134819Y-108039761D01*
X107134819Y-108039761D02*
X107087200Y-107944523D01*
X107087200Y-107944523D02*
X107039580Y-107896904D01*
X107039580Y-107896904D02*
X106944342Y-107849285D01*
X106944342Y-107849285D02*
X106706247Y-107849285D01*
X106706247Y-107849285D02*
X106611009Y-107896904D01*
X106611009Y-107896904D02*
X106563390Y-107944523D01*
X106563390Y-107944523D02*
X106515771Y-108039761D01*
X106515771Y-108039761D02*
X106515771Y-108230237D01*
X106515771Y-108230237D02*
X106563390Y-108325475D01*
X106563390Y-108325475D02*
X106611009Y-108373094D01*
X106611009Y-108373094D02*
X106706247Y-108420713D01*
X81004580Y-150568266D02*
X81052200Y-150615885D01*
X81052200Y-150615885D02*
X81099819Y-150758742D01*
X81099819Y-150758742D02*
X81099819Y-150853980D01*
X81099819Y-150853980D02*
X81052200Y-150996837D01*
X81052200Y-150996837D02*
X80956961Y-151092075D01*
X80956961Y-151092075D02*
X80861723Y-151139694D01*
X80861723Y-151139694D02*
X80671247Y-151187313D01*
X80671247Y-151187313D02*
X80528390Y-151187313D01*
X80528390Y-151187313D02*
X80337914Y-151139694D01*
X80337914Y-151139694D02*
X80242676Y-151092075D01*
X80242676Y-151092075D02*
X80147438Y-150996837D01*
X80147438Y-150996837D02*
X80099819Y-150853980D01*
X80099819Y-150853980D02*
X80099819Y-150758742D01*
X80099819Y-150758742D02*
X80147438Y-150615885D01*
X80147438Y-150615885D02*
X80195057Y-150568266D01*
X81099819Y-149615885D02*
X81099819Y-150187313D01*
X81099819Y-149901599D02*
X80099819Y-149901599D01*
X80099819Y-149901599D02*
X80242676Y-149996837D01*
X80242676Y-149996837D02*
X80337914Y-150092075D01*
X80337914Y-150092075D02*
X80385533Y-150187313D01*
X128724819Y-115824041D02*
X127724819Y-115824041D01*
X127724819Y-115824041D02*
X127724819Y-115443089D01*
X127724819Y-115443089D02*
X127772438Y-115347851D01*
X127772438Y-115347851D02*
X127820057Y-115300232D01*
X127820057Y-115300232D02*
X127915295Y-115252613D01*
X127915295Y-115252613D02*
X128058152Y-115252613D01*
X128058152Y-115252613D02*
X128153390Y-115300232D01*
X128153390Y-115300232D02*
X128201009Y-115347851D01*
X128201009Y-115347851D02*
X128248628Y-115443089D01*
X128248628Y-115443089D02*
X128248628Y-115824041D01*
X128677200Y-114871660D02*
X128724819Y-114728803D01*
X128724819Y-114728803D02*
X128724819Y-114490708D01*
X128724819Y-114490708D02*
X128677200Y-114395470D01*
X128677200Y-114395470D02*
X128629580Y-114347851D01*
X128629580Y-114347851D02*
X128534342Y-114300232D01*
X128534342Y-114300232D02*
X128439104Y-114300232D01*
X128439104Y-114300232D02*
X128343866Y-114347851D01*
X128343866Y-114347851D02*
X128296247Y-114395470D01*
X128296247Y-114395470D02*
X128248628Y-114490708D01*
X128248628Y-114490708D02*
X128201009Y-114681184D01*
X128201009Y-114681184D02*
X128153390Y-114776422D01*
X128153390Y-114776422D02*
X128105771Y-114824041D01*
X128105771Y-114824041D02*
X128010533Y-114871660D01*
X128010533Y-114871660D02*
X127915295Y-114871660D01*
X127915295Y-114871660D02*
X127820057Y-114824041D01*
X127820057Y-114824041D02*
X127772438Y-114776422D01*
X127772438Y-114776422D02*
X127724819Y-114681184D01*
X127724819Y-114681184D02*
X127724819Y-114443089D01*
X127724819Y-114443089D02*
X127772438Y-114300232D01*
X127820057Y-113919279D02*
X127772438Y-113871660D01*
X127772438Y-113871660D02*
X127724819Y-113776422D01*
X127724819Y-113776422D02*
X127724819Y-113538327D01*
X127724819Y-113538327D02*
X127772438Y-113443089D01*
X127772438Y-113443089D02*
X127820057Y-113395470D01*
X127820057Y-113395470D02*
X127915295Y-113347851D01*
X127915295Y-113347851D02*
X128010533Y-113347851D01*
X128010533Y-113347851D02*
X128153390Y-113395470D01*
X128153390Y-113395470D02*
X128724819Y-113966898D01*
X128724819Y-113966898D02*
X128724819Y-113347851D01*
X128343866Y-112157374D02*
X128343866Y-111395470D01*
X128724819Y-109633565D02*
X128724819Y-110204993D01*
X128724819Y-109919279D02*
X127724819Y-109919279D01*
X127724819Y-109919279D02*
X127867676Y-110014517D01*
X127867676Y-110014517D02*
X127962914Y-110109755D01*
X127962914Y-110109755D02*
X128010533Y-110204993D01*
X127820057Y-109252612D02*
X127772438Y-109204993D01*
X127772438Y-109204993D02*
X127724819Y-109109755D01*
X127724819Y-109109755D02*
X127724819Y-108871660D01*
X127724819Y-108871660D02*
X127772438Y-108776422D01*
X127772438Y-108776422D02*
X127820057Y-108728803D01*
X127820057Y-108728803D02*
X127915295Y-108681184D01*
X127915295Y-108681184D02*
X128010533Y-108681184D01*
X128010533Y-108681184D02*
X128153390Y-108728803D01*
X128153390Y-108728803D02*
X128724819Y-109300231D01*
X128724819Y-109300231D02*
X128724819Y-108681184D01*
X127724819Y-108395469D02*
X128724819Y-108062136D01*
X128724819Y-108062136D02*
X127724819Y-107728803D01*
X128724819Y-106871660D02*
X128724819Y-107443088D01*
X128724819Y-107157374D02*
X127724819Y-107157374D01*
X127724819Y-107157374D02*
X127867676Y-107252612D01*
X127867676Y-107252612D02*
X127962914Y-107347850D01*
X127962914Y-107347850D02*
X128010533Y-107443088D01*
X56287200Y-113728332D02*
X56334819Y-113585475D01*
X56334819Y-113585475D02*
X56334819Y-113347380D01*
X56334819Y-113347380D02*
X56287200Y-113252142D01*
X56287200Y-113252142D02*
X56239580Y-113204523D01*
X56239580Y-113204523D02*
X56144342Y-113156904D01*
X56144342Y-113156904D02*
X56049104Y-113156904D01*
X56049104Y-113156904D02*
X55953866Y-113204523D01*
X55953866Y-113204523D02*
X55906247Y-113252142D01*
X55906247Y-113252142D02*
X55858628Y-113347380D01*
X55858628Y-113347380D02*
X55811009Y-113537856D01*
X55811009Y-113537856D02*
X55763390Y-113633094D01*
X55763390Y-113633094D02*
X55715771Y-113680713D01*
X55715771Y-113680713D02*
X55620533Y-113728332D01*
X55620533Y-113728332D02*
X55525295Y-113728332D01*
X55525295Y-113728332D02*
X55430057Y-113680713D01*
X55430057Y-113680713D02*
X55382438Y-113633094D01*
X55382438Y-113633094D02*
X55334819Y-113537856D01*
X55334819Y-113537856D02*
X55334819Y-113299761D01*
X55334819Y-113299761D02*
X55382438Y-113156904D01*
X55334819Y-112823570D02*
X56334819Y-112585475D01*
X56334819Y-112585475D02*
X55620533Y-112394999D01*
X55620533Y-112394999D02*
X56334819Y-112204523D01*
X56334819Y-112204523D02*
X55334819Y-111966428D01*
X55668152Y-111156904D02*
X56334819Y-111156904D01*
X55287200Y-111394999D02*
X56001485Y-111633094D01*
X56001485Y-111633094D02*
X56001485Y-111014047D01*
X39304818Y-107629999D02*
X39542913Y-107629999D01*
X39447675Y-107868094D02*
X39542913Y-107629999D01*
X39542913Y-107629999D02*
X39447675Y-107391904D01*
X39733389Y-107772856D02*
X39542913Y-107629999D01*
X39542913Y-107629999D02*
X39733389Y-107487142D01*
X39304818Y-107629999D02*
X39542913Y-107629999D01*
X39447675Y-107868094D02*
X39542913Y-107629999D01*
X39542913Y-107629999D02*
X39447675Y-107391904D01*
X39733389Y-107772856D02*
X39542913Y-107629999D01*
X39542913Y-107629999D02*
X39733389Y-107487142D01*
X33529819Y-126345238D02*
X33529819Y-126916666D01*
X33529819Y-126630952D02*
X32529819Y-126630952D01*
X32529819Y-126630952D02*
X32672676Y-126726190D01*
X32672676Y-126726190D02*
X32767914Y-126821428D01*
X32767914Y-126821428D02*
X32815533Y-126916666D01*
X32625057Y-125964285D02*
X32577438Y-125916666D01*
X32577438Y-125916666D02*
X32529819Y-125821428D01*
X32529819Y-125821428D02*
X32529819Y-125583333D01*
X32529819Y-125583333D02*
X32577438Y-125488095D01*
X32577438Y-125488095D02*
X32625057Y-125440476D01*
X32625057Y-125440476D02*
X32720295Y-125392857D01*
X32720295Y-125392857D02*
X32815533Y-125392857D01*
X32815533Y-125392857D02*
X32958390Y-125440476D01*
X32958390Y-125440476D02*
X33529819Y-126011904D01*
X33529819Y-126011904D02*
X33529819Y-125392857D01*
X32529819Y-125107142D02*
X33529819Y-124773809D01*
X33529819Y-124773809D02*
X32529819Y-124440476D01*
X33529819Y-123583333D02*
X33529819Y-124154761D01*
X33529819Y-123869047D02*
X32529819Y-123869047D01*
X32529819Y-123869047D02*
X32672676Y-123964285D01*
X32672676Y-123964285D02*
X32767914Y-124059523D01*
X32767914Y-124059523D02*
X32815533Y-124154761D01*
X38698466Y-85905180D02*
X39031799Y-86381371D01*
X39269894Y-85905180D02*
X39269894Y-86905180D01*
X39269894Y-86905180D02*
X38888942Y-86905180D01*
X38888942Y-86905180D02*
X38793704Y-86857561D01*
X38793704Y-86857561D02*
X38746085Y-86809942D01*
X38746085Y-86809942D02*
X38698466Y-86714704D01*
X38698466Y-86714704D02*
X38698466Y-86571847D01*
X38698466Y-86571847D02*
X38746085Y-86476609D01*
X38746085Y-86476609D02*
X38793704Y-86428990D01*
X38793704Y-86428990D02*
X38888942Y-86381371D01*
X38888942Y-86381371D02*
X39269894Y-86381371D01*
X38365132Y-86905180D02*
X37746085Y-86905180D01*
X37746085Y-86905180D02*
X38079418Y-86524228D01*
X38079418Y-86524228D02*
X37936561Y-86524228D01*
X37936561Y-86524228D02*
X37841323Y-86476609D01*
X37841323Y-86476609D02*
X37793704Y-86428990D01*
X37793704Y-86428990D02*
X37746085Y-86333752D01*
X37746085Y-86333752D02*
X37746085Y-86095657D01*
X37746085Y-86095657D02*
X37793704Y-86000419D01*
X37793704Y-86000419D02*
X37841323Y-85952800D01*
X37841323Y-85952800D02*
X37936561Y-85905180D01*
X37936561Y-85905180D02*
X38222275Y-85905180D01*
X38222275Y-85905180D02*
X38317513Y-85952800D01*
X38317513Y-85952800D02*
X38365132Y-86000419D01*
X56287200Y-139128332D02*
X56334819Y-138985475D01*
X56334819Y-138985475D02*
X56334819Y-138747380D01*
X56334819Y-138747380D02*
X56287200Y-138652142D01*
X56287200Y-138652142D02*
X56239580Y-138604523D01*
X56239580Y-138604523D02*
X56144342Y-138556904D01*
X56144342Y-138556904D02*
X56049104Y-138556904D01*
X56049104Y-138556904D02*
X55953866Y-138604523D01*
X55953866Y-138604523D02*
X55906247Y-138652142D01*
X55906247Y-138652142D02*
X55858628Y-138747380D01*
X55858628Y-138747380D02*
X55811009Y-138937856D01*
X55811009Y-138937856D02*
X55763390Y-139033094D01*
X55763390Y-139033094D02*
X55715771Y-139080713D01*
X55715771Y-139080713D02*
X55620533Y-139128332D01*
X55620533Y-139128332D02*
X55525295Y-139128332D01*
X55525295Y-139128332D02*
X55430057Y-139080713D01*
X55430057Y-139080713D02*
X55382438Y-139033094D01*
X55382438Y-139033094D02*
X55334819Y-138937856D01*
X55334819Y-138937856D02*
X55334819Y-138699761D01*
X55334819Y-138699761D02*
X55382438Y-138556904D01*
X55334819Y-138223570D02*
X56334819Y-137985475D01*
X56334819Y-137985475D02*
X55620533Y-137794999D01*
X55620533Y-137794999D02*
X56334819Y-137604523D01*
X56334819Y-137604523D02*
X55334819Y-137366428D01*
X55430057Y-137033094D02*
X55382438Y-136985475D01*
X55382438Y-136985475D02*
X55334819Y-136890237D01*
X55334819Y-136890237D02*
X55334819Y-136652142D01*
X55334819Y-136652142D02*
X55382438Y-136556904D01*
X55382438Y-136556904D02*
X55430057Y-136509285D01*
X55430057Y-136509285D02*
X55525295Y-136461666D01*
X55525295Y-136461666D02*
X55620533Y-136461666D01*
X55620533Y-136461666D02*
X55763390Y-136509285D01*
X55763390Y-136509285D02*
X56334819Y-137080713D01*
X56334819Y-137080713D02*
X56334819Y-136461666D01*
X39304818Y-133029999D02*
X39542913Y-133029999D01*
X39447675Y-133268094D02*
X39542913Y-133029999D01*
X39542913Y-133029999D02*
X39447675Y-132791904D01*
X39733389Y-133172856D02*
X39542913Y-133029999D01*
X39542913Y-133029999D02*
X39733389Y-132887142D01*
X39304818Y-133029999D02*
X39542913Y-133029999D01*
X39447675Y-133268094D02*
X39542913Y-133029999D01*
X39542913Y-133029999D02*
X39447675Y-132791904D01*
X39733389Y-133172856D02*
X39542913Y-133029999D01*
X39542913Y-133029999D02*
X39733389Y-132887142D01*
X87354580Y-120621666D02*
X87402200Y-120669285D01*
X87402200Y-120669285D02*
X87449819Y-120812142D01*
X87449819Y-120812142D02*
X87449819Y-120907380D01*
X87449819Y-120907380D02*
X87402200Y-121050237D01*
X87402200Y-121050237D02*
X87306961Y-121145475D01*
X87306961Y-121145475D02*
X87211723Y-121193094D01*
X87211723Y-121193094D02*
X87021247Y-121240713D01*
X87021247Y-121240713D02*
X86878390Y-121240713D01*
X86878390Y-121240713D02*
X86687914Y-121193094D01*
X86687914Y-121193094D02*
X86592676Y-121145475D01*
X86592676Y-121145475D02*
X86497438Y-121050237D01*
X86497438Y-121050237D02*
X86449819Y-120907380D01*
X86449819Y-120907380D02*
X86449819Y-120812142D01*
X86449819Y-120812142D02*
X86497438Y-120669285D01*
X86497438Y-120669285D02*
X86545057Y-120621666D01*
X86545057Y-120240713D02*
X86497438Y-120193094D01*
X86497438Y-120193094D02*
X86449819Y-120097856D01*
X86449819Y-120097856D02*
X86449819Y-119859761D01*
X86449819Y-119859761D02*
X86497438Y-119764523D01*
X86497438Y-119764523D02*
X86545057Y-119716904D01*
X86545057Y-119716904D02*
X86640295Y-119669285D01*
X86640295Y-119669285D02*
X86735533Y-119669285D01*
X86735533Y-119669285D02*
X86878390Y-119716904D01*
X86878390Y-119716904D02*
X87449819Y-120288332D01*
X87449819Y-120288332D02*
X87449819Y-119669285D01*
X72988466Y-85270180D02*
X73321799Y-85746371D01*
X73559894Y-85270180D02*
X73559894Y-86270180D01*
X73559894Y-86270180D02*
X73178942Y-86270180D01*
X73178942Y-86270180D02*
X73083704Y-86222561D01*
X73083704Y-86222561D02*
X73036085Y-86174942D01*
X73036085Y-86174942D02*
X72988466Y-86079704D01*
X72988466Y-86079704D02*
X72988466Y-85936847D01*
X72988466Y-85936847D02*
X73036085Y-85841609D01*
X73036085Y-85841609D02*
X73083704Y-85793990D01*
X73083704Y-85793990D02*
X73178942Y-85746371D01*
X73178942Y-85746371D02*
X73559894Y-85746371D01*
X72036085Y-85270180D02*
X72607513Y-85270180D01*
X72321799Y-85270180D02*
X72321799Y-86270180D01*
X72321799Y-86270180D02*
X72417037Y-86127323D01*
X72417037Y-86127323D02*
X72512275Y-86032085D01*
X72512275Y-86032085D02*
X72607513Y-85984466D01*
X31025180Y-86026666D02*
X30310895Y-86026666D01*
X30310895Y-86026666D02*
X30168038Y-85979047D01*
X30168038Y-85979047D02*
X30072800Y-85883809D01*
X30072800Y-85883809D02*
X30025180Y-85740952D01*
X30025180Y-85740952D02*
X30025180Y-85645714D01*
X30691847Y-86931428D02*
X30025180Y-86931428D01*
X31072800Y-86693333D02*
X30358514Y-86455238D01*
X30358514Y-86455238D02*
X30358514Y-87074285D01*
X33474819Y-87479047D02*
X33474819Y-87955237D01*
X33474819Y-87955237D02*
X32474819Y-87955237D01*
X32951009Y-87145713D02*
X32951009Y-86812380D01*
X33474819Y-86669523D02*
X33474819Y-87145713D01*
X33474819Y-87145713D02*
X32474819Y-87145713D01*
X32474819Y-87145713D02*
X32474819Y-86669523D01*
X33474819Y-86240951D02*
X32474819Y-86240951D01*
X32474819Y-86240951D02*
X32474819Y-86002856D01*
X32474819Y-86002856D02*
X32522438Y-85859999D01*
X32522438Y-85859999D02*
X32617676Y-85764761D01*
X32617676Y-85764761D02*
X32712914Y-85717142D01*
X32712914Y-85717142D02*
X32903390Y-85669523D01*
X32903390Y-85669523D02*
X33046247Y-85669523D01*
X33046247Y-85669523D02*
X33236723Y-85717142D01*
X33236723Y-85717142D02*
X33331961Y-85764761D01*
X33331961Y-85764761D02*
X33427200Y-85859999D01*
X33427200Y-85859999D02*
X33474819Y-86002856D01*
X33474819Y-86002856D02*
X33474819Y-86240951D01*
X33474819Y-84717142D02*
X33474819Y-85288570D01*
X33474819Y-85002856D02*
X32474819Y-85002856D01*
X32474819Y-85002856D02*
X32617676Y-85098094D01*
X32617676Y-85098094D02*
X32712914Y-85193332D01*
X32712914Y-85193332D02*
X32760533Y-85288570D01*
X31025180Y-75866666D02*
X30310895Y-75866666D01*
X30310895Y-75866666D02*
X30168038Y-75819047D01*
X30168038Y-75819047D02*
X30072800Y-75723809D01*
X30072800Y-75723809D02*
X30025180Y-75580952D01*
X30025180Y-75580952D02*
X30025180Y-75485714D01*
X31025180Y-76819047D02*
X31025180Y-76342857D01*
X31025180Y-76342857D02*
X30548990Y-76295238D01*
X30548990Y-76295238D02*
X30596609Y-76342857D01*
X30596609Y-76342857D02*
X30644228Y-76438095D01*
X30644228Y-76438095D02*
X30644228Y-76676190D01*
X30644228Y-76676190D02*
X30596609Y-76771428D01*
X30596609Y-76771428D02*
X30548990Y-76819047D01*
X30548990Y-76819047D02*
X30453752Y-76866666D01*
X30453752Y-76866666D02*
X30215657Y-76866666D01*
X30215657Y-76866666D02*
X30120419Y-76819047D01*
X30120419Y-76819047D02*
X30072800Y-76771428D01*
X30072800Y-76771428D02*
X30025180Y-76676190D01*
X30025180Y-76676190D02*
X30025180Y-76438095D01*
X30025180Y-76438095D02*
X30072800Y-76342857D01*
X30072800Y-76342857D02*
X30120419Y-76295238D01*
X33474819Y-77319047D02*
X33474819Y-77795237D01*
X33474819Y-77795237D02*
X32474819Y-77795237D01*
X32951009Y-76985713D02*
X32951009Y-76652380D01*
X33474819Y-76509523D02*
X33474819Y-76985713D01*
X33474819Y-76985713D02*
X32474819Y-76985713D01*
X32474819Y-76985713D02*
X32474819Y-76509523D01*
X33474819Y-76080951D02*
X32474819Y-76080951D01*
X32474819Y-76080951D02*
X32474819Y-75842856D01*
X32474819Y-75842856D02*
X32522438Y-75699999D01*
X32522438Y-75699999D02*
X32617676Y-75604761D01*
X32617676Y-75604761D02*
X32712914Y-75557142D01*
X32712914Y-75557142D02*
X32903390Y-75509523D01*
X32903390Y-75509523D02*
X33046247Y-75509523D01*
X33046247Y-75509523D02*
X33236723Y-75557142D01*
X33236723Y-75557142D02*
X33331961Y-75604761D01*
X33331961Y-75604761D02*
X33427200Y-75699999D01*
X33427200Y-75699999D02*
X33474819Y-75842856D01*
X33474819Y-75842856D02*
X33474819Y-76080951D01*
X32570057Y-75128570D02*
X32522438Y-75080951D01*
X32522438Y-75080951D02*
X32474819Y-74985713D01*
X32474819Y-74985713D02*
X32474819Y-74747618D01*
X32474819Y-74747618D02*
X32522438Y-74652380D01*
X32522438Y-74652380D02*
X32570057Y-74604761D01*
X32570057Y-74604761D02*
X32665295Y-74557142D01*
X32665295Y-74557142D02*
X32760533Y-74557142D01*
X32760533Y-74557142D02*
X32903390Y-74604761D01*
X32903390Y-74604761D02*
X33474819Y-75176189D01*
X33474819Y-75176189D02*
X33474819Y-74557142D01*
X32625057Y-152316666D02*
X32577438Y-152269047D01*
X32577438Y-152269047D02*
X32529819Y-152173809D01*
X32529819Y-152173809D02*
X32529819Y-151935714D01*
X32529819Y-151935714D02*
X32577438Y-151840476D01*
X32577438Y-151840476D02*
X32625057Y-151792857D01*
X32625057Y-151792857D02*
X32720295Y-151745238D01*
X32720295Y-151745238D02*
X32815533Y-151745238D01*
X32815533Y-151745238D02*
X32958390Y-151792857D01*
X32958390Y-151792857D02*
X33529819Y-152364285D01*
X33529819Y-152364285D02*
X33529819Y-151745238D01*
X32863152Y-150888095D02*
X33529819Y-150888095D01*
X32482200Y-151126190D02*
X33196485Y-151364285D01*
X33196485Y-151364285D02*
X33196485Y-150745238D01*
X32529819Y-150507142D02*
X33529819Y-150173809D01*
X33529819Y-150173809D02*
X32529819Y-149840476D01*
X33529819Y-148983333D02*
X33529819Y-149554761D01*
X33529819Y-149269047D02*
X32529819Y-149269047D01*
X32529819Y-149269047D02*
X32672676Y-149364285D01*
X32672676Y-149364285D02*
X32767914Y-149459523D01*
X32767914Y-149459523D02*
X32815533Y-149554761D01*
X66402295Y-87039285D02*
X65602295Y-87039285D01*
X65602295Y-87039285D02*
X65602295Y-86848809D01*
X65602295Y-86848809D02*
X65640390Y-86734523D01*
X65640390Y-86734523D02*
X65716580Y-86658333D01*
X65716580Y-86658333D02*
X65792771Y-86620238D01*
X65792771Y-86620238D02*
X65945152Y-86582142D01*
X65945152Y-86582142D02*
X66059438Y-86582142D01*
X66059438Y-86582142D02*
X66211819Y-86620238D01*
X66211819Y-86620238D02*
X66288009Y-86658333D01*
X66288009Y-86658333D02*
X66364200Y-86734523D01*
X66364200Y-86734523D02*
X66402295Y-86848809D01*
X66402295Y-86848809D02*
X66402295Y-87039285D01*
X66402295Y-86239285D02*
X65602295Y-86239285D01*
X65983247Y-86239285D02*
X65983247Y-85782142D01*
X66402295Y-85782142D02*
X65602295Y-85782142D01*
X65602295Y-85515476D02*
X65602295Y-85058333D01*
X66402295Y-85286905D02*
X65602295Y-85286905D01*
X66402295Y-84372619D02*
X66402295Y-84829762D01*
X66402295Y-84601190D02*
X65602295Y-84601190D01*
X65602295Y-84601190D02*
X65716580Y-84677381D01*
X65716580Y-84677381D02*
X65792771Y-84753571D01*
X65792771Y-84753571D02*
X65830866Y-84829762D01*
X32512380Y-25854819D02*
X32036190Y-25854819D01*
X32036190Y-25854819D02*
X32036190Y-24854819D01*
X33417142Y-25759580D02*
X33369523Y-25807200D01*
X33369523Y-25807200D02*
X33226666Y-25854819D01*
X33226666Y-25854819D02*
X33131428Y-25854819D01*
X33131428Y-25854819D02*
X32988571Y-25807200D01*
X32988571Y-25807200D02*
X32893333Y-25711961D01*
X32893333Y-25711961D02*
X32845714Y-25616723D01*
X32845714Y-25616723D02*
X32798095Y-25426247D01*
X32798095Y-25426247D02*
X32798095Y-25283390D01*
X32798095Y-25283390D02*
X32845714Y-25092914D01*
X32845714Y-25092914D02*
X32893333Y-24997676D01*
X32893333Y-24997676D02*
X32988571Y-24902438D01*
X32988571Y-24902438D02*
X33131428Y-24854819D01*
X33131428Y-24854819D02*
X33226666Y-24854819D01*
X33226666Y-24854819D02*
X33369523Y-24902438D01*
X33369523Y-24902438D02*
X33417142Y-24950057D01*
X33845714Y-25854819D02*
X33845714Y-24854819D01*
X33845714Y-24854819D02*
X34083809Y-24854819D01*
X34083809Y-24854819D02*
X34226666Y-24902438D01*
X34226666Y-24902438D02*
X34321904Y-24997676D01*
X34321904Y-24997676D02*
X34369523Y-25092914D01*
X34369523Y-25092914D02*
X34417142Y-25283390D01*
X34417142Y-25283390D02*
X34417142Y-25426247D01*
X34417142Y-25426247D02*
X34369523Y-25616723D01*
X34369523Y-25616723D02*
X34321904Y-25711961D01*
X34321904Y-25711961D02*
X34226666Y-25807200D01*
X34226666Y-25807200D02*
X34083809Y-25854819D01*
X34083809Y-25854819D02*
X33845714Y-25854819D01*
X35607619Y-25473866D02*
X36369524Y-25473866D01*
X37607619Y-25854819D02*
X37607619Y-24854819D01*
X37607619Y-24854819D02*
X37988571Y-24854819D01*
X37988571Y-24854819D02*
X38083809Y-24902438D01*
X38083809Y-24902438D02*
X38131428Y-24950057D01*
X38131428Y-24950057D02*
X38179047Y-25045295D01*
X38179047Y-25045295D02*
X38179047Y-25188152D01*
X38179047Y-25188152D02*
X38131428Y-25283390D01*
X38131428Y-25283390D02*
X38083809Y-25331009D01*
X38083809Y-25331009D02*
X37988571Y-25378628D01*
X37988571Y-25378628D02*
X37607619Y-25378628D01*
X39131428Y-25854819D02*
X38560000Y-25854819D01*
X38845714Y-25854819D02*
X38845714Y-24854819D01*
X38845714Y-24854819D02*
X38750476Y-24997676D01*
X38750476Y-24997676D02*
X38655238Y-25092914D01*
X38655238Y-25092914D02*
X38560000Y-25140533D01*
X32529819Y-103056666D02*
X32529819Y-103532856D01*
X32529819Y-103532856D02*
X33006009Y-103580475D01*
X33006009Y-103580475D02*
X32958390Y-103532856D01*
X32958390Y-103532856D02*
X32910771Y-103437618D01*
X32910771Y-103437618D02*
X32910771Y-103199523D01*
X32910771Y-103199523D02*
X32958390Y-103104285D01*
X32958390Y-103104285D02*
X33006009Y-103056666D01*
X33006009Y-103056666D02*
X33101247Y-103009047D01*
X33101247Y-103009047D02*
X33339342Y-103009047D01*
X33339342Y-103009047D02*
X33434580Y-103056666D01*
X33434580Y-103056666D02*
X33482200Y-103104285D01*
X33482200Y-103104285D02*
X33529819Y-103199523D01*
X33529819Y-103199523D02*
X33529819Y-103437618D01*
X33529819Y-103437618D02*
X33482200Y-103532856D01*
X33482200Y-103532856D02*
X33434580Y-103580475D01*
X32529819Y-102723332D02*
X33529819Y-102389999D01*
X33529819Y-102389999D02*
X32529819Y-102056666D01*
X33529819Y-101199523D02*
X33529819Y-101770951D01*
X33529819Y-101485237D02*
X32529819Y-101485237D01*
X32529819Y-101485237D02*
X32672676Y-101580475D01*
X32672676Y-101580475D02*
X32767914Y-101675713D01*
X32767914Y-101675713D02*
X32815533Y-101770951D01*
X108309580Y-150568266D02*
X108357200Y-150615885D01*
X108357200Y-150615885D02*
X108404819Y-150758742D01*
X108404819Y-150758742D02*
X108404819Y-150853980D01*
X108404819Y-150853980D02*
X108357200Y-150996837D01*
X108357200Y-150996837D02*
X108261961Y-151092075D01*
X108261961Y-151092075D02*
X108166723Y-151139694D01*
X108166723Y-151139694D02*
X107976247Y-151187313D01*
X107976247Y-151187313D02*
X107833390Y-151187313D01*
X107833390Y-151187313D02*
X107642914Y-151139694D01*
X107642914Y-151139694D02*
X107547676Y-151092075D01*
X107547676Y-151092075D02*
X107452438Y-150996837D01*
X107452438Y-150996837D02*
X107404819Y-150853980D01*
X107404819Y-150853980D02*
X107404819Y-150758742D01*
X107404819Y-150758742D02*
X107452438Y-150615885D01*
X107452438Y-150615885D02*
X107500057Y-150568266D01*
X107738152Y-149711123D02*
X108404819Y-149711123D01*
X107357200Y-149949218D02*
X108071485Y-150187313D01*
X108071485Y-150187313D02*
X108071485Y-149568266D01*
X38698466Y-75745180D02*
X39031799Y-76221371D01*
X39269894Y-75745180D02*
X39269894Y-76745180D01*
X39269894Y-76745180D02*
X38888942Y-76745180D01*
X38888942Y-76745180D02*
X38793704Y-76697561D01*
X38793704Y-76697561D02*
X38746085Y-76649942D01*
X38746085Y-76649942D02*
X38698466Y-76554704D01*
X38698466Y-76554704D02*
X38698466Y-76411847D01*
X38698466Y-76411847D02*
X38746085Y-76316609D01*
X38746085Y-76316609D02*
X38793704Y-76268990D01*
X38793704Y-76268990D02*
X38888942Y-76221371D01*
X38888942Y-76221371D02*
X39269894Y-76221371D01*
X37841323Y-76411847D02*
X37841323Y-75745180D01*
X38079418Y-76792800D02*
X38317513Y-76078514D01*
X38317513Y-76078514D02*
X37698466Y-76078514D01*
X88719819Y-135509876D02*
X88719819Y-135986066D01*
X88719819Y-135986066D02*
X87719819Y-135986066D01*
X88719819Y-134652733D02*
X88719819Y-135224161D01*
X88719819Y-134938447D02*
X87719819Y-134938447D01*
X87719819Y-134938447D02*
X87862676Y-135033685D01*
X87862676Y-135033685D02*
X87957914Y-135128923D01*
X87957914Y-135128923D02*
X88005533Y-135224161D01*
X56287200Y-126428332D02*
X56334819Y-126285475D01*
X56334819Y-126285475D02*
X56334819Y-126047380D01*
X56334819Y-126047380D02*
X56287200Y-125952142D01*
X56287200Y-125952142D02*
X56239580Y-125904523D01*
X56239580Y-125904523D02*
X56144342Y-125856904D01*
X56144342Y-125856904D02*
X56049104Y-125856904D01*
X56049104Y-125856904D02*
X55953866Y-125904523D01*
X55953866Y-125904523D02*
X55906247Y-125952142D01*
X55906247Y-125952142D02*
X55858628Y-126047380D01*
X55858628Y-126047380D02*
X55811009Y-126237856D01*
X55811009Y-126237856D02*
X55763390Y-126333094D01*
X55763390Y-126333094D02*
X55715771Y-126380713D01*
X55715771Y-126380713D02*
X55620533Y-126428332D01*
X55620533Y-126428332D02*
X55525295Y-126428332D01*
X55525295Y-126428332D02*
X55430057Y-126380713D01*
X55430057Y-126380713D02*
X55382438Y-126333094D01*
X55382438Y-126333094D02*
X55334819Y-126237856D01*
X55334819Y-126237856D02*
X55334819Y-125999761D01*
X55334819Y-125999761D02*
X55382438Y-125856904D01*
X55334819Y-125523570D02*
X56334819Y-125285475D01*
X56334819Y-125285475D02*
X55620533Y-125094999D01*
X55620533Y-125094999D02*
X56334819Y-124904523D01*
X56334819Y-124904523D02*
X55334819Y-124666428D01*
X55334819Y-124380713D02*
X55334819Y-123761666D01*
X55334819Y-123761666D02*
X55715771Y-124094999D01*
X55715771Y-124094999D02*
X55715771Y-123952142D01*
X55715771Y-123952142D02*
X55763390Y-123856904D01*
X55763390Y-123856904D02*
X55811009Y-123809285D01*
X55811009Y-123809285D02*
X55906247Y-123761666D01*
X55906247Y-123761666D02*
X56144342Y-123761666D01*
X56144342Y-123761666D02*
X56239580Y-123809285D01*
X56239580Y-123809285D02*
X56287200Y-123856904D01*
X56287200Y-123856904D02*
X56334819Y-123952142D01*
X56334819Y-123952142D02*
X56334819Y-124237856D01*
X56334819Y-124237856D02*
X56287200Y-124333094D01*
X56287200Y-124333094D02*
X56239580Y-124380713D01*
X39304818Y-120329999D02*
X39542913Y-120329999D01*
X39447675Y-120568094D02*
X39542913Y-120329999D01*
X39542913Y-120329999D02*
X39447675Y-120091904D01*
X39733389Y-120472856D02*
X39542913Y-120329999D01*
X39542913Y-120329999D02*
X39733389Y-120187142D01*
X39304818Y-120329999D02*
X39542913Y-120329999D01*
X39447675Y-120568094D02*
X39542913Y-120329999D01*
X39542913Y-120329999D02*
X39447675Y-120091904D01*
X39733389Y-120472856D02*
X39542913Y-120329999D01*
X39542913Y-120329999D02*
X39733389Y-120187142D01*
X204639104Y-155654285D02*
X204639104Y-155178095D01*
X204924819Y-155749523D02*
X203924819Y-155416190D01*
X203924819Y-155416190D02*
X204924819Y-155082857D01*
X204924819Y-154225714D02*
X204924819Y-154797142D01*
X204924819Y-154511428D02*
X203924819Y-154511428D01*
X203924819Y-154511428D02*
X204067676Y-154606666D01*
X204067676Y-154606666D02*
X204162914Y-154701904D01*
X204162914Y-154701904D02*
X204210533Y-154797142D01*
X56287200Y-151824531D02*
X56334819Y-151681674D01*
X56334819Y-151681674D02*
X56334819Y-151443579D01*
X56334819Y-151443579D02*
X56287200Y-151348341D01*
X56287200Y-151348341D02*
X56239580Y-151300722D01*
X56239580Y-151300722D02*
X56144342Y-151253103D01*
X56144342Y-151253103D02*
X56049104Y-151253103D01*
X56049104Y-151253103D02*
X55953866Y-151300722D01*
X55953866Y-151300722D02*
X55906247Y-151348341D01*
X55906247Y-151348341D02*
X55858628Y-151443579D01*
X55858628Y-151443579D02*
X55811009Y-151634055D01*
X55811009Y-151634055D02*
X55763390Y-151729293D01*
X55763390Y-151729293D02*
X55715771Y-151776912D01*
X55715771Y-151776912D02*
X55620533Y-151824531D01*
X55620533Y-151824531D02*
X55525295Y-151824531D01*
X55525295Y-151824531D02*
X55430057Y-151776912D01*
X55430057Y-151776912D02*
X55382438Y-151729293D01*
X55382438Y-151729293D02*
X55334819Y-151634055D01*
X55334819Y-151634055D02*
X55334819Y-151395960D01*
X55334819Y-151395960D02*
X55382438Y-151253103D01*
X55334819Y-150919769D02*
X56334819Y-150681674D01*
X56334819Y-150681674D02*
X55620533Y-150491198D01*
X55620533Y-150491198D02*
X56334819Y-150300722D01*
X56334819Y-150300722D02*
X55334819Y-150062627D01*
X56334819Y-149157865D02*
X56334819Y-149729293D01*
X56334819Y-149443579D02*
X55334819Y-149443579D01*
X55334819Y-149443579D02*
X55477676Y-149538817D01*
X55477676Y-149538817D02*
X55572914Y-149634055D01*
X55572914Y-149634055D02*
X55620533Y-149729293D01*
X39304818Y-145729999D02*
X39542913Y-145729999D01*
X39447675Y-145968094D02*
X39542913Y-145729999D01*
X39542913Y-145729999D02*
X39447675Y-145491904D01*
X39733389Y-145872856D02*
X39542913Y-145729999D01*
X39542913Y-145729999D02*
X39733389Y-145587142D01*
X39304818Y-145729999D02*
X39542913Y-145729999D01*
X39447675Y-145968094D02*
X39542913Y-145729999D01*
X39542913Y-145729999D02*
X39447675Y-145491904D01*
X39733389Y-145872856D02*
X39542913Y-145729999D01*
X39542913Y-145729999D02*
X39733389Y-145587142D01*
X101959580Y-120621666D02*
X102007200Y-120669285D01*
X102007200Y-120669285D02*
X102054819Y-120812142D01*
X102054819Y-120812142D02*
X102054819Y-120907380D01*
X102054819Y-120907380D02*
X102007200Y-121050237D01*
X102007200Y-121050237D02*
X101911961Y-121145475D01*
X101911961Y-121145475D02*
X101816723Y-121193094D01*
X101816723Y-121193094D02*
X101626247Y-121240713D01*
X101626247Y-121240713D02*
X101483390Y-121240713D01*
X101483390Y-121240713D02*
X101292914Y-121193094D01*
X101292914Y-121193094D02*
X101197676Y-121145475D01*
X101197676Y-121145475D02*
X101102438Y-121050237D01*
X101102438Y-121050237D02*
X101054819Y-120907380D01*
X101054819Y-120907380D02*
X101054819Y-120812142D01*
X101054819Y-120812142D02*
X101102438Y-120669285D01*
X101102438Y-120669285D02*
X101150057Y-120621666D01*
X101054819Y-119716904D02*
X101054819Y-120193094D01*
X101054819Y-120193094D02*
X101531009Y-120240713D01*
X101531009Y-120240713D02*
X101483390Y-120193094D01*
X101483390Y-120193094D02*
X101435771Y-120097856D01*
X101435771Y-120097856D02*
X101435771Y-119859761D01*
X101435771Y-119859761D02*
X101483390Y-119764523D01*
X101483390Y-119764523D02*
X101531009Y-119716904D01*
X101531009Y-119716904D02*
X101626247Y-119669285D01*
X101626247Y-119669285D02*
X101864342Y-119669285D01*
X101864342Y-119669285D02*
X101959580Y-119716904D01*
X101959580Y-119716904D02*
X102007200Y-119764523D01*
X102007200Y-119764523D02*
X102054819Y-119859761D01*
X102054819Y-119859761D02*
X102054819Y-120097856D01*
X102054819Y-120097856D02*
X102007200Y-120193094D01*
X102007200Y-120193094D02*
X101959580Y-120240713D01*
X46482380Y-25854819D02*
X46006190Y-25854819D01*
X46006190Y-25854819D02*
X46006190Y-24854819D01*
X47387142Y-25759580D02*
X47339523Y-25807200D01*
X47339523Y-25807200D02*
X47196666Y-25854819D01*
X47196666Y-25854819D02*
X47101428Y-25854819D01*
X47101428Y-25854819D02*
X46958571Y-25807200D01*
X46958571Y-25807200D02*
X46863333Y-25711961D01*
X46863333Y-25711961D02*
X46815714Y-25616723D01*
X46815714Y-25616723D02*
X46768095Y-25426247D01*
X46768095Y-25426247D02*
X46768095Y-25283390D01*
X46768095Y-25283390D02*
X46815714Y-25092914D01*
X46815714Y-25092914D02*
X46863333Y-24997676D01*
X46863333Y-24997676D02*
X46958571Y-24902438D01*
X46958571Y-24902438D02*
X47101428Y-24854819D01*
X47101428Y-24854819D02*
X47196666Y-24854819D01*
X47196666Y-24854819D02*
X47339523Y-24902438D01*
X47339523Y-24902438D02*
X47387142Y-24950057D01*
X47815714Y-25854819D02*
X47815714Y-24854819D01*
X47815714Y-24854819D02*
X48053809Y-24854819D01*
X48053809Y-24854819D02*
X48196666Y-24902438D01*
X48196666Y-24902438D02*
X48291904Y-24997676D01*
X48291904Y-24997676D02*
X48339523Y-25092914D01*
X48339523Y-25092914D02*
X48387142Y-25283390D01*
X48387142Y-25283390D02*
X48387142Y-25426247D01*
X48387142Y-25426247D02*
X48339523Y-25616723D01*
X48339523Y-25616723D02*
X48291904Y-25711961D01*
X48291904Y-25711961D02*
X48196666Y-25807200D01*
X48196666Y-25807200D02*
X48053809Y-25854819D01*
X48053809Y-25854819D02*
X47815714Y-25854819D01*
X49577619Y-25473866D02*
X50339524Y-25473866D01*
X51577619Y-25854819D02*
X51577619Y-24854819D01*
X51577619Y-24854819D02*
X51958571Y-24854819D01*
X51958571Y-24854819D02*
X52053809Y-24902438D01*
X52053809Y-24902438D02*
X52101428Y-24950057D01*
X52101428Y-24950057D02*
X52149047Y-25045295D01*
X52149047Y-25045295D02*
X52149047Y-25188152D01*
X52149047Y-25188152D02*
X52101428Y-25283390D01*
X52101428Y-25283390D02*
X52053809Y-25331009D01*
X52053809Y-25331009D02*
X51958571Y-25378628D01*
X51958571Y-25378628D02*
X51577619Y-25378628D01*
X52530000Y-24950057D02*
X52577619Y-24902438D01*
X52577619Y-24902438D02*
X52672857Y-24854819D01*
X52672857Y-24854819D02*
X52910952Y-24854819D01*
X52910952Y-24854819D02*
X53006190Y-24902438D01*
X53006190Y-24902438D02*
X53053809Y-24950057D01*
X53053809Y-24950057D02*
X53101428Y-25045295D01*
X53101428Y-25045295D02*
X53101428Y-25140533D01*
X53101428Y-25140533D02*
X53053809Y-25283390D01*
X53053809Y-25283390D02*
X52482381Y-25854819D01*
X52482381Y-25854819D02*
X53101428Y-25854819D01*
X60525819Y-114744660D02*
X59525819Y-114744660D01*
X59525819Y-114744660D02*
X59525819Y-114363708D01*
X59525819Y-114363708D02*
X59573438Y-114268470D01*
X59573438Y-114268470D02*
X59621057Y-114220851D01*
X59621057Y-114220851D02*
X59716295Y-114173232D01*
X59716295Y-114173232D02*
X59859152Y-114173232D01*
X59859152Y-114173232D02*
X59954390Y-114220851D01*
X59954390Y-114220851D02*
X60002009Y-114268470D01*
X60002009Y-114268470D02*
X60049628Y-114363708D01*
X60049628Y-114363708D02*
X60049628Y-114744660D01*
X60478200Y-113792279D02*
X60525819Y-113649422D01*
X60525819Y-113649422D02*
X60525819Y-113411327D01*
X60525819Y-113411327D02*
X60478200Y-113316089D01*
X60478200Y-113316089D02*
X60430580Y-113268470D01*
X60430580Y-113268470D02*
X60335342Y-113220851D01*
X60335342Y-113220851D02*
X60240104Y-113220851D01*
X60240104Y-113220851D02*
X60144866Y-113268470D01*
X60144866Y-113268470D02*
X60097247Y-113316089D01*
X60097247Y-113316089D02*
X60049628Y-113411327D01*
X60049628Y-113411327D02*
X60002009Y-113601803D01*
X60002009Y-113601803D02*
X59954390Y-113697041D01*
X59954390Y-113697041D02*
X59906771Y-113744660D01*
X59906771Y-113744660D02*
X59811533Y-113792279D01*
X59811533Y-113792279D02*
X59716295Y-113792279D01*
X59716295Y-113792279D02*
X59621057Y-113744660D01*
X59621057Y-113744660D02*
X59573438Y-113697041D01*
X59573438Y-113697041D02*
X59525819Y-113601803D01*
X59525819Y-113601803D02*
X59525819Y-113363708D01*
X59525819Y-113363708D02*
X59573438Y-113220851D01*
X60525819Y-112268470D02*
X60525819Y-112839898D01*
X60525819Y-112554184D02*
X59525819Y-112554184D01*
X59525819Y-112554184D02*
X59668676Y-112649422D01*
X59668676Y-112649422D02*
X59763914Y-112744660D01*
X59763914Y-112744660D02*
X59811533Y-112839898D01*
X60144866Y-111077993D02*
X60144866Y-110316089D01*
X59525819Y-108601803D02*
X59525819Y-109077993D01*
X59525819Y-109077993D02*
X60002009Y-109125612D01*
X60002009Y-109125612D02*
X59954390Y-109077993D01*
X59954390Y-109077993D02*
X59906771Y-108982755D01*
X59906771Y-108982755D02*
X59906771Y-108744660D01*
X59906771Y-108744660D02*
X59954390Y-108649422D01*
X59954390Y-108649422D02*
X60002009Y-108601803D01*
X60002009Y-108601803D02*
X60097247Y-108554184D01*
X60097247Y-108554184D02*
X60335342Y-108554184D01*
X60335342Y-108554184D02*
X60430580Y-108601803D01*
X60430580Y-108601803D02*
X60478200Y-108649422D01*
X60478200Y-108649422D02*
X60525819Y-108744660D01*
X60525819Y-108744660D02*
X60525819Y-108982755D01*
X60525819Y-108982755D02*
X60478200Y-109077993D01*
X60478200Y-109077993D02*
X60430580Y-109125612D01*
X59525819Y-108268469D02*
X60525819Y-107935136D01*
X60525819Y-107935136D02*
X59525819Y-107601803D01*
X60525819Y-106744660D02*
X60525819Y-107316088D01*
X60525819Y-107030374D02*
X59525819Y-107030374D01*
X59525819Y-107030374D02*
X59668676Y-107125612D01*
X59668676Y-107125612D02*
X59763914Y-107220850D01*
X59763914Y-107220850D02*
X59811533Y-107316088D01*
X32529819Y-96071666D02*
X32529819Y-96547856D01*
X32529819Y-96547856D02*
X33006009Y-96595475D01*
X33006009Y-96595475D02*
X32958390Y-96547856D01*
X32958390Y-96547856D02*
X32910771Y-96452618D01*
X32910771Y-96452618D02*
X32910771Y-96214523D01*
X32910771Y-96214523D02*
X32958390Y-96119285D01*
X32958390Y-96119285D02*
X33006009Y-96071666D01*
X33006009Y-96071666D02*
X33101247Y-96024047D01*
X33101247Y-96024047D02*
X33339342Y-96024047D01*
X33339342Y-96024047D02*
X33434580Y-96071666D01*
X33434580Y-96071666D02*
X33482200Y-96119285D01*
X33482200Y-96119285D02*
X33529819Y-96214523D01*
X33529819Y-96214523D02*
X33529819Y-96452618D01*
X33529819Y-96452618D02*
X33482200Y-96547856D01*
X33482200Y-96547856D02*
X33434580Y-96595475D01*
X32529819Y-95738332D02*
X33529819Y-95404999D01*
X33529819Y-95404999D02*
X32529819Y-95071666D01*
X32625057Y-94785951D02*
X32577438Y-94738332D01*
X32577438Y-94738332D02*
X32529819Y-94643094D01*
X32529819Y-94643094D02*
X32529819Y-94404999D01*
X32529819Y-94404999D02*
X32577438Y-94309761D01*
X32577438Y-94309761D02*
X32625057Y-94262142D01*
X32625057Y-94262142D02*
X32720295Y-94214523D01*
X32720295Y-94214523D02*
X32815533Y-94214523D01*
X32815533Y-94214523D02*
X32958390Y-94262142D01*
X32958390Y-94262142D02*
X33529819Y-94833570D01*
X33529819Y-94833570D02*
X33529819Y-94214523D01*
X204639104Y-26114285D02*
X204639104Y-25638095D01*
X204924819Y-26209523D02*
X203924819Y-25876190D01*
X203924819Y-25876190D02*
X204924819Y-25542857D01*
X204020057Y-25257142D02*
X203972438Y-25209523D01*
X203972438Y-25209523D02*
X203924819Y-25114285D01*
X203924819Y-25114285D02*
X203924819Y-24876190D01*
X203924819Y-24876190D02*
X203972438Y-24780952D01*
X203972438Y-24780952D02*
X204020057Y-24733333D01*
X204020057Y-24733333D02*
X204115295Y-24685714D01*
X204115295Y-24685714D02*
X204210533Y-24685714D01*
X204210533Y-24685714D02*
X204353390Y-24733333D01*
X204353390Y-24733333D02*
X204924819Y-25304761D01*
X204924819Y-25304761D02*
X204924819Y-24685714D01*
X72988466Y-75745180D02*
X73321799Y-76221371D01*
X73559894Y-75745180D02*
X73559894Y-76745180D01*
X73559894Y-76745180D02*
X73178942Y-76745180D01*
X73178942Y-76745180D02*
X73083704Y-76697561D01*
X73083704Y-76697561D02*
X73036085Y-76649942D01*
X73036085Y-76649942D02*
X72988466Y-76554704D01*
X72988466Y-76554704D02*
X72988466Y-76411847D01*
X72988466Y-76411847D02*
X73036085Y-76316609D01*
X73036085Y-76316609D02*
X73083704Y-76268990D01*
X73083704Y-76268990D02*
X73178942Y-76221371D01*
X73178942Y-76221371D02*
X73559894Y-76221371D01*
X72607513Y-76649942D02*
X72559894Y-76697561D01*
X72559894Y-76697561D02*
X72464656Y-76745180D01*
X72464656Y-76745180D02*
X72226561Y-76745180D01*
X72226561Y-76745180D02*
X72131323Y-76697561D01*
X72131323Y-76697561D02*
X72083704Y-76649942D01*
X72083704Y-76649942D02*
X72036085Y-76554704D01*
X72036085Y-76554704D02*
X72036085Y-76459466D01*
X72036085Y-76459466D02*
X72083704Y-76316609D01*
X72083704Y-76316609D02*
X72655132Y-75745180D01*
X72655132Y-75745180D02*
X72036085Y-75745180D01*
X32625057Y-139616666D02*
X32577438Y-139569047D01*
X32577438Y-139569047D02*
X32529819Y-139473809D01*
X32529819Y-139473809D02*
X32529819Y-139235714D01*
X32529819Y-139235714D02*
X32577438Y-139140476D01*
X32577438Y-139140476D02*
X32625057Y-139092857D01*
X32625057Y-139092857D02*
X32720295Y-139045238D01*
X32720295Y-139045238D02*
X32815533Y-139045238D01*
X32815533Y-139045238D02*
X32958390Y-139092857D01*
X32958390Y-139092857D02*
X33529819Y-139664285D01*
X33529819Y-139664285D02*
X33529819Y-139045238D01*
X32863152Y-138188095D02*
X33529819Y-138188095D01*
X32482200Y-138426190D02*
X33196485Y-138664285D01*
X33196485Y-138664285D02*
X33196485Y-138045238D01*
X32529819Y-137807142D02*
X33529819Y-137473809D01*
X33529819Y-137473809D02*
X32529819Y-137140476D01*
X32625057Y-136854761D02*
X32577438Y-136807142D01*
X32577438Y-136807142D02*
X32529819Y-136711904D01*
X32529819Y-136711904D02*
X32529819Y-136473809D01*
X32529819Y-136473809D02*
X32577438Y-136378571D01*
X32577438Y-136378571D02*
X32625057Y-136330952D01*
X32625057Y-136330952D02*
X32720295Y-136283333D01*
X32720295Y-136283333D02*
X32815533Y-136283333D01*
X32815533Y-136283333D02*
X32958390Y-136330952D01*
X32958390Y-136330952D02*
X33529819Y-136902380D01*
X33529819Y-136902380D02*
X33529819Y-136283333D01*
X82274580Y-108801666D02*
X82322200Y-108849285D01*
X82322200Y-108849285D02*
X82369819Y-108992142D01*
X82369819Y-108992142D02*
X82369819Y-109087380D01*
X82369819Y-109087380D02*
X82322200Y-109230237D01*
X82322200Y-109230237D02*
X82226961Y-109325475D01*
X82226961Y-109325475D02*
X82131723Y-109373094D01*
X82131723Y-109373094D02*
X81941247Y-109420713D01*
X81941247Y-109420713D02*
X81798390Y-109420713D01*
X81798390Y-109420713D02*
X81607914Y-109373094D01*
X81607914Y-109373094D02*
X81512676Y-109325475D01*
X81512676Y-109325475D02*
X81417438Y-109230237D01*
X81417438Y-109230237D02*
X81369819Y-109087380D01*
X81369819Y-109087380D02*
X81369819Y-108992142D01*
X81369819Y-108992142D02*
X81417438Y-108849285D01*
X81417438Y-108849285D02*
X81465057Y-108801666D01*
X81369819Y-108468332D02*
X81369819Y-107849285D01*
X81369819Y-107849285D02*
X81750771Y-108182618D01*
X81750771Y-108182618D02*
X81750771Y-108039761D01*
X81750771Y-108039761D02*
X81798390Y-107944523D01*
X81798390Y-107944523D02*
X81846009Y-107896904D01*
X81846009Y-107896904D02*
X81941247Y-107849285D01*
X81941247Y-107849285D02*
X82179342Y-107849285D01*
X82179342Y-107849285D02*
X82274580Y-107896904D01*
X82274580Y-107896904D02*
X82322200Y-107944523D01*
X82322200Y-107944523D02*
X82369819Y-108039761D01*
X82369819Y-108039761D02*
X82369819Y-108325475D01*
X82369819Y-108325475D02*
X82322200Y-108420713D01*
X82322200Y-108420713D02*
X82274580Y-108468332D01*
X87814236Y-155700868D02*
X87766529Y-155653161D01*
X87766529Y-155653161D02*
X87718821Y-155557746D01*
X87718821Y-155557746D02*
X87718821Y-155319208D01*
X87718821Y-155319208D02*
X87766529Y-155223793D01*
X87766529Y-155223793D02*
X87814236Y-155176086D01*
X87814236Y-155176086D02*
X87909651Y-155128378D01*
X87909651Y-155128378D02*
X88005066Y-155128378D01*
X88005066Y-155128378D02*
X88148189Y-155176086D01*
X88148189Y-155176086D02*
X88720679Y-155748576D01*
X88720679Y-155748576D02*
X88720679Y-155128378D01*
X88052774Y-154269643D02*
X88720679Y-154269643D01*
X87671114Y-154508181D02*
X88386726Y-154746718D01*
X88386726Y-154746718D02*
X88386726Y-154126521D01*
X87718821Y-153887983D02*
X88720679Y-153554031D01*
X88720679Y-153554031D02*
X87718821Y-153220078D01*
X88720679Y-152122806D02*
X87718821Y-152122806D01*
X88052774Y-151645731D02*
X88720679Y-151645731D01*
X88148189Y-151645731D02*
X88100481Y-151598023D01*
X88100481Y-151598023D02*
X88052774Y-151502608D01*
X88052774Y-151502608D02*
X88052774Y-151359486D01*
X88052774Y-151359486D02*
X88100481Y-151264071D01*
X88100481Y-151264071D02*
X88195896Y-151216363D01*
X88195896Y-151216363D02*
X88720679Y-151216363D01*
X88052774Y-150739288D02*
X89054632Y-150739288D01*
X88100481Y-150739288D02*
X88052774Y-150643873D01*
X88052774Y-150643873D02*
X88052774Y-150453043D01*
X88052774Y-150453043D02*
X88100481Y-150357628D01*
X88100481Y-150357628D02*
X88148189Y-150309920D01*
X88148189Y-150309920D02*
X88243604Y-150262213D01*
X88243604Y-150262213D02*
X88529849Y-150262213D01*
X88529849Y-150262213D02*
X88625264Y-150309920D01*
X88625264Y-150309920D02*
X88672972Y-150357628D01*
X88672972Y-150357628D02*
X88720679Y-150453043D01*
X88720679Y-150453043D02*
X88720679Y-150643873D01*
X88720679Y-150643873D02*
X88672972Y-150739288D01*
X88052774Y-149403477D02*
X88720679Y-149403477D01*
X88052774Y-149832845D02*
X88577556Y-149832845D01*
X88577556Y-149832845D02*
X88672972Y-149785137D01*
X88672972Y-149785137D02*
X88720679Y-149689722D01*
X88720679Y-149689722D02*
X88720679Y-149546600D01*
X88720679Y-149546600D02*
X88672972Y-149451185D01*
X88672972Y-149451185D02*
X88625264Y-149403477D01*
X88052774Y-149069524D02*
X88052774Y-148687864D01*
X87718821Y-148926402D02*
X88577556Y-148926402D01*
X88577556Y-148926402D02*
X88672972Y-148878694D01*
X88672972Y-148878694D02*
X88720679Y-148783279D01*
X88720679Y-148783279D02*
X88720679Y-148687864D01*
X88720679Y-147829129D02*
X88720679Y-148401619D01*
X88720679Y-148115374D02*
X87718821Y-148115374D01*
X87718821Y-148115374D02*
X87861944Y-148210789D01*
X87861944Y-148210789D02*
X87957359Y-148306204D01*
X87957359Y-148306204D02*
X88005066Y-148401619D01*
X33529819Y-113645238D02*
X33529819Y-114216666D01*
X33529819Y-113930952D02*
X32529819Y-113930952D01*
X32529819Y-113930952D02*
X32672676Y-114026190D01*
X32672676Y-114026190D02*
X32767914Y-114121428D01*
X32767914Y-114121428D02*
X32815533Y-114216666D01*
X32625057Y-113264285D02*
X32577438Y-113216666D01*
X32577438Y-113216666D02*
X32529819Y-113121428D01*
X32529819Y-113121428D02*
X32529819Y-112883333D01*
X32529819Y-112883333D02*
X32577438Y-112788095D01*
X32577438Y-112788095D02*
X32625057Y-112740476D01*
X32625057Y-112740476D02*
X32720295Y-112692857D01*
X32720295Y-112692857D02*
X32815533Y-112692857D01*
X32815533Y-112692857D02*
X32958390Y-112740476D01*
X32958390Y-112740476D02*
X33529819Y-113311904D01*
X33529819Y-113311904D02*
X33529819Y-112692857D01*
X32529819Y-112407142D02*
X33529819Y-112073809D01*
X33529819Y-112073809D02*
X32529819Y-111740476D01*
X32625057Y-111454761D02*
X32577438Y-111407142D01*
X32577438Y-111407142D02*
X32529819Y-111311904D01*
X32529819Y-111311904D02*
X32529819Y-111073809D01*
X32529819Y-111073809D02*
X32577438Y-110978571D01*
X32577438Y-110978571D02*
X32625057Y-110930952D01*
X32625057Y-110930952D02*
X32720295Y-110883333D01*
X32720295Y-110883333D02*
X32815533Y-110883333D01*
X32815533Y-110883333D02*
X32958390Y-110930952D01*
X32958390Y-110930952D02*
X33529819Y-111502380D01*
X33529819Y-111502380D02*
X33529819Y-110883333D01*
X100784819Y-135509876D02*
X100784819Y-135986066D01*
X100784819Y-135986066D02*
X99784819Y-135986066D01*
X99880057Y-135224161D02*
X99832438Y-135176542D01*
X99832438Y-135176542D02*
X99784819Y-135081304D01*
X99784819Y-135081304D02*
X99784819Y-134843209D01*
X99784819Y-134843209D02*
X99832438Y-134747971D01*
X99832438Y-134747971D02*
X99880057Y-134700352D01*
X99880057Y-134700352D02*
X99975295Y-134652733D01*
X99975295Y-134652733D02*
X100070533Y-134652733D01*
X100070533Y-134652733D02*
X100213390Y-134700352D01*
X100213390Y-134700352D02*
X100784819Y-135271780D01*
X100784819Y-135271780D02*
X100784819Y-134652733D01*
X118332380Y-93589819D02*
X117999047Y-93113628D01*
X117760952Y-93589819D02*
X117760952Y-92589819D01*
X117760952Y-92589819D02*
X118141904Y-92589819D01*
X118141904Y-92589819D02*
X118237142Y-92637438D01*
X118237142Y-92637438D02*
X118284761Y-92685057D01*
X118284761Y-92685057D02*
X118332380Y-92780295D01*
X118332380Y-92780295D02*
X118332380Y-92923152D01*
X118332380Y-92923152D02*
X118284761Y-93018390D01*
X118284761Y-93018390D02*
X118237142Y-93066009D01*
X118237142Y-93066009D02*
X118141904Y-93113628D01*
X118141904Y-93113628D02*
X117760952Y-93113628D01*
X118618095Y-92589819D02*
X119189523Y-92589819D01*
X118903809Y-93589819D02*
X118903809Y-92589819D01*
X120094285Y-93494580D02*
X120046666Y-93542200D01*
X120046666Y-93542200D02*
X119903809Y-93589819D01*
X119903809Y-93589819D02*
X119808571Y-93589819D01*
X119808571Y-93589819D02*
X119665714Y-93542200D01*
X119665714Y-93542200D02*
X119570476Y-93446961D01*
X119570476Y-93446961D02*
X119522857Y-93351723D01*
X119522857Y-93351723D02*
X119475238Y-93161247D01*
X119475238Y-93161247D02*
X119475238Y-93018390D01*
X119475238Y-93018390D02*
X119522857Y-92827914D01*
X119522857Y-92827914D02*
X119570476Y-92732676D01*
X119570476Y-92732676D02*
X119665714Y-92637438D01*
X119665714Y-92637438D02*
X119808571Y-92589819D01*
X119808571Y-92589819D02*
X119903809Y-92589819D01*
X119903809Y-92589819D02*
X120046666Y-92637438D01*
X120046666Y-92637438D02*
X120094285Y-92685057D01*
X121046666Y-93589819D02*
X120475238Y-93589819D01*
X120760952Y-93589819D02*
X120760952Y-92589819D01*
X120760952Y-92589819D02*
X120665714Y-92732676D01*
X120665714Y-92732676D02*
X120570476Y-92827914D01*
X120570476Y-92827914D02*
X120475238Y-92875533D01*
X66402295Y-77514285D02*
X65602295Y-77514285D01*
X65602295Y-77514285D02*
X65602295Y-77323809D01*
X65602295Y-77323809D02*
X65640390Y-77209523D01*
X65640390Y-77209523D02*
X65716580Y-77133333D01*
X65716580Y-77133333D02*
X65792771Y-77095238D01*
X65792771Y-77095238D02*
X65945152Y-77057142D01*
X65945152Y-77057142D02*
X66059438Y-77057142D01*
X66059438Y-77057142D02*
X66211819Y-77095238D01*
X66211819Y-77095238D02*
X66288009Y-77133333D01*
X66288009Y-77133333D02*
X66364200Y-77209523D01*
X66364200Y-77209523D02*
X66402295Y-77323809D01*
X66402295Y-77323809D02*
X66402295Y-77514285D01*
X66402295Y-76714285D02*
X65602295Y-76714285D01*
X65983247Y-76714285D02*
X65983247Y-76257142D01*
X66402295Y-76257142D02*
X65602295Y-76257142D01*
X65602295Y-75990476D02*
X65602295Y-75533333D01*
X66402295Y-75761905D02*
X65602295Y-75761905D01*
X65678485Y-75304762D02*
X65640390Y-75266666D01*
X65640390Y-75266666D02*
X65602295Y-75190476D01*
X65602295Y-75190476D02*
X65602295Y-75000000D01*
X65602295Y-75000000D02*
X65640390Y-74923809D01*
X65640390Y-74923809D02*
X65678485Y-74885714D01*
X65678485Y-74885714D02*
X65754676Y-74847619D01*
X65754676Y-74847619D02*
X65830866Y-74847619D01*
X65830866Y-74847619D02*
X65945152Y-74885714D01*
X65945152Y-74885714D02*
X66402295Y-75342857D01*
X66402295Y-75342857D02*
X66402295Y-74847619D01*
D11*
X112040000Y-105985000D02*
X111610000Y-105985000D01*
X109370000Y-105985000D02*
X108940000Y-105985000D01*
X108940000Y-105985000D02*
X107840000Y-107085000D01*
X113140000Y-107085000D02*
X112040000Y-105985000D01*
X107840000Y-107085000D02*
X107840000Y-111285000D01*
X113140000Y-111285000D02*
X113140000Y-107085000D01*
X111610000Y-111285000D02*
X113140000Y-111285000D01*
X107840000Y-111285000D02*
X109370000Y-111285000D01*
D12*
X111940000Y-104485000D02*
G75*
G03*
X111940000Y-104485000I-100000J0D01*
G01*
D13*
X86017100Y-145029500D02*
X81727040Y-145029500D01*
X79562960Y-145029500D02*
X75272900Y-145029500D01*
X75272900Y-145029500D02*
X75272900Y-155773700D01*
X86017100Y-155773700D02*
X86017100Y-145029500D01*
X81727040Y-155773700D02*
X86017100Y-155773700D01*
X75272900Y-155773700D02*
X79562960Y-155773700D01*
X80721200Y-143137200D02*
G75*
G03*
X80721200Y-143137200I-76200J0D01*
G01*
D11*
X126650000Y-105565000D02*
X120750000Y-105565000D01*
X118550000Y-105565000D02*
X114650000Y-105565000D01*
X114650000Y-105565000D02*
X114650000Y-156365000D01*
X126650000Y-156365000D02*
X126650000Y-105565000D01*
X114650000Y-156365000D02*
X126650000Y-156365000D01*
D12*
X119750000Y-104985000D02*
G75*
G03*
X119750000Y-104985000I-100000J0D01*
G01*
D13*
X34772600Y-117919500D02*
X54127400Y-117919500D01*
X54127400Y-117919500D02*
X54127400Y-106870500D01*
X34772600Y-106870500D02*
X34772600Y-117919500D01*
X54127400Y-106870500D02*
X34772600Y-106870500D01*
D11*
X31190000Y-122325000D02*
X31190000Y-127865000D01*
X24690000Y-122325000D02*
X31190000Y-122325000D01*
X31190000Y-127865000D02*
X24690000Y-127865000D01*
X24690000Y-127865000D02*
X24690000Y-122325000D01*
D12*
X28040000Y-121575000D02*
G75*
G03*
X28040000Y-121575000I-100000J0D01*
G01*
D13*
X40738850Y-84607400D02*
X36324750Y-84607400D01*
X36324750Y-88112600D02*
X40738850Y-88112600D01*
X34772600Y-143319500D02*
X54127400Y-143319500D01*
X54127400Y-143319500D02*
X54127400Y-132270500D01*
X34772600Y-132270500D02*
X34772600Y-143319500D01*
X54127400Y-132270500D02*
X34772600Y-132270500D01*
X75272900Y-125827100D02*
X79562960Y-125827100D01*
X81727040Y-125827100D02*
X86017100Y-125827100D01*
X86017100Y-125827100D02*
X86017100Y-115082900D01*
X75272900Y-115082900D02*
X75272900Y-125827100D01*
X79562960Y-115082900D02*
X75272900Y-115082900D01*
X86017100Y-115082900D02*
X81727040Y-115082900D01*
X80721200Y-127719400D02*
G75*
G03*
X80721200Y-127719400I-76200J0D01*
G01*
X75028850Y-83972400D02*
X70614750Y-83972400D01*
X70614750Y-87477600D02*
X75028850Y-87477600D01*
X31318200Y-82194400D02*
X24561800Y-82194400D01*
X24561800Y-82194400D02*
X24561800Y-90525600D01*
X31318200Y-90525600D02*
X31318200Y-82194400D01*
X24561800Y-90525600D02*
X31318200Y-90525600D01*
D14*
X26416000Y-83820000D02*
G75*
G03*
X26416000Y-83820000I-381000J0D01*
G01*
D13*
X31318200Y-72034400D02*
X24561800Y-72034400D01*
X24561800Y-72034400D02*
X24561800Y-80365600D01*
X31318200Y-80365600D02*
X31318200Y-72034400D01*
X24561800Y-80365600D02*
X31318200Y-80365600D01*
D14*
X26416000Y-73660000D02*
G75*
G03*
X26416000Y-73660000I-381000J0D01*
G01*
D11*
X31190000Y-147725000D02*
X31190000Y-153265000D01*
X24690000Y-147725000D02*
X31190000Y-147725000D01*
X31190000Y-153265000D02*
X24690000Y-153265000D01*
X24690000Y-153265000D02*
X24690000Y-147725000D01*
D12*
X28040000Y-146975000D02*
G75*
G03*
X28040000Y-146975000I-100000J0D01*
G01*
D11*
X59350000Y-89535000D02*
X60350000Y-89535000D01*
X60350000Y-89535000D02*
X65150000Y-89535000D01*
X60350000Y-89535000D02*
X60350000Y-81915000D01*
X65150000Y-89535000D02*
X65150000Y-81915000D01*
X59350000Y-81915000D02*
X59350000Y-89535000D01*
X60350000Y-81915000D02*
X59350000Y-81915000D01*
X65150000Y-81915000D02*
X60350000Y-81915000D01*
D15*
X62430000Y-81225000D02*
G75*
G03*
X62430000Y-81225000I-200000J0D01*
G01*
D16*
X31690000Y-30540000D02*
X31690000Y-29210000D01*
X33020000Y-30540000D02*
X31690000Y-30540000D01*
X34290000Y-30540000D02*
X39430000Y-30540000D01*
X34290000Y-30540000D02*
X34290000Y-27880000D01*
X39430000Y-30540000D02*
X39430000Y-27880000D01*
X34290000Y-27880000D02*
X39430000Y-27880000D01*
D11*
X31190000Y-99465000D02*
X31190000Y-105005000D01*
X24690000Y-99465000D02*
X31190000Y-99465000D01*
X31190000Y-105005000D02*
X24690000Y-105005000D01*
X24690000Y-105005000D02*
X24690000Y-99465000D01*
D12*
X28040000Y-98715000D02*
G75*
G03*
X28040000Y-98715000I-100000J0D01*
G01*
D13*
X113322100Y-145029500D02*
X109032040Y-145029500D01*
X106867960Y-145029500D02*
X102577900Y-145029500D01*
X102577900Y-145029500D02*
X102577900Y-155773700D01*
X113322100Y-155773700D02*
X113322100Y-145029500D01*
X109032040Y-155773700D02*
X113322100Y-155773700D01*
X102577900Y-155773700D02*
X106867960Y-155773700D01*
X108026200Y-143137200D02*
G75*
G03*
X108026200Y-143137200I-76200J0D01*
G01*
X40738850Y-74447400D02*
X36324750Y-74447400D01*
X36324750Y-77952600D02*
X40738850Y-77952600D01*
X34772600Y-130619500D02*
X54127400Y-130619500D01*
X54127400Y-130619500D02*
X54127400Y-119570500D01*
X34772600Y-119570500D02*
X34772600Y-130619500D01*
X54127400Y-119570500D02*
X34772600Y-119570500D01*
D16*
X209680000Y-123950000D02*
X209680000Y-112270000D01*
X209680000Y-112270000D02*
X203330000Y-112270000D01*
X205230000Y-153160000D02*
X205230000Y-144020000D01*
X205230000Y-144020000D02*
X203330000Y-144020000D01*
X203330000Y-156340000D02*
X203330000Y-153160000D01*
X203330000Y-153160000D02*
X205230000Y-153160000D01*
X203330000Y-144020000D02*
X203330000Y-123950000D01*
X203330000Y-123950000D02*
X209680000Y-123950000D01*
X203330000Y-112270000D02*
X203330000Y-102740000D01*
X203330000Y-102740000D02*
X138680000Y-102740000D01*
X138680000Y-102740000D02*
X137030000Y-104390000D01*
X137030000Y-156340000D02*
X203330000Y-156340000D01*
X137030000Y-153670000D02*
X137030000Y-156340000D01*
X137030000Y-115820000D02*
X134490000Y-118360000D01*
X137030000Y-104390000D02*
X137030000Y-115820000D01*
X134490000Y-151130000D02*
X137030000Y-153670000D01*
X134490000Y-118360000D02*
X134490000Y-151130000D01*
D13*
X34772600Y-156019500D02*
X54127400Y-156019500D01*
X54127400Y-156019500D02*
X54127400Y-144970500D01*
X34772600Y-144970500D02*
X34772600Y-156019500D01*
X54127400Y-144970500D02*
X34772600Y-144970500D01*
X102577900Y-125827100D02*
X106867960Y-125827100D01*
X109032040Y-125827100D02*
X113322100Y-125827100D01*
X113322100Y-125827100D02*
X113322100Y-115082900D01*
X102577900Y-115082900D02*
X102577900Y-125827100D01*
X106867960Y-115082900D02*
X102577900Y-115082900D01*
X113322100Y-115082900D02*
X109032040Y-115082900D01*
X108026200Y-127719400D02*
G75*
G03*
X108026200Y-127719400I-76200J0D01*
G01*
D16*
X41850000Y-30540000D02*
X41850000Y-29210000D01*
X43180000Y-30540000D02*
X41850000Y-30540000D01*
X44450000Y-30540000D02*
X57210000Y-30540000D01*
X44450000Y-30540000D02*
X44450000Y-27880000D01*
X57210000Y-30540000D02*
X57210000Y-27880000D01*
X44450000Y-27880000D02*
X57210000Y-27880000D01*
D11*
X73691000Y-105535500D02*
X67791000Y-105535500D01*
X65591000Y-105535500D02*
X61691000Y-105535500D01*
X61691000Y-105535500D02*
X61691000Y-156335500D01*
X73691000Y-156335500D02*
X73691000Y-105535500D01*
X61691000Y-156335500D02*
X73691000Y-156335500D01*
D12*
X66791000Y-104955500D02*
G75*
G03*
X66791000Y-104955500I-100000J0D01*
G01*
D11*
X31190000Y-92480000D02*
X31190000Y-98020000D01*
X24690000Y-92480000D02*
X31190000Y-92480000D01*
X31190000Y-98020000D02*
X24690000Y-98020000D01*
X24690000Y-98020000D02*
X24690000Y-92480000D01*
D12*
X28040000Y-91730000D02*
G75*
G03*
X28040000Y-91730000I-100000J0D01*
G01*
D16*
X209680000Y-68070000D02*
X203330000Y-68070000D01*
X209680000Y-56390000D02*
X209680000Y-68070000D01*
X205230000Y-36320000D02*
X203330000Y-36320000D01*
X205230000Y-27180000D02*
X205230000Y-36320000D01*
X203330000Y-77600000D02*
X138680000Y-77600000D01*
X203330000Y-68070000D02*
X203330000Y-77600000D01*
X203330000Y-56390000D02*
X209680000Y-56390000D01*
X203330000Y-36320000D02*
X203330000Y-56390000D01*
X203330000Y-27180000D02*
X205230000Y-27180000D01*
X203330000Y-24000000D02*
X203330000Y-27180000D01*
X138680000Y-77600000D02*
X137030000Y-75950000D01*
X137030000Y-75950000D02*
X137030000Y-64520000D01*
X137030000Y-64520000D02*
X134490000Y-61980000D01*
X137030000Y-26670000D02*
X137030000Y-24000000D01*
X137030000Y-24000000D02*
X203330000Y-24000000D01*
X134490000Y-61980000D02*
X134490000Y-29210000D01*
X134490000Y-29210000D02*
X137030000Y-26670000D01*
D13*
X75028850Y-74447400D02*
X70614750Y-74447400D01*
X70614750Y-77952600D02*
X75028850Y-77952600D01*
D11*
X31190000Y-135025000D02*
X31190000Y-140565000D01*
X24690000Y-135025000D02*
X31190000Y-135025000D01*
X31190000Y-140565000D02*
X24690000Y-140565000D01*
X24690000Y-140565000D02*
X24690000Y-135025000D01*
D12*
X28040000Y-134275000D02*
G75*
G03*
X28040000Y-134275000I-100000J0D01*
G01*
D11*
X79655000Y-105985000D02*
X79225000Y-105985000D01*
X76985000Y-105985000D02*
X76555000Y-105985000D01*
X76555000Y-105985000D02*
X75455000Y-107085000D01*
X80755000Y-107085000D02*
X79655000Y-105985000D01*
X75455000Y-107085000D02*
X75455000Y-111285000D01*
X80755000Y-111285000D02*
X80755000Y-107085000D01*
X79225000Y-111285000D02*
X80755000Y-111285000D01*
X75455000Y-111285000D02*
X76985000Y-111285000D01*
D12*
X79555000Y-104485000D02*
G75*
G03*
X79555000Y-104485000I-100000J0D01*
G01*
D11*
X98480000Y-145065000D02*
X98480000Y-146215000D01*
X96530000Y-145065000D02*
X98480000Y-145065000D01*
X89480000Y-145065000D02*
X91330000Y-145065000D01*
X98480000Y-151315000D02*
X98480000Y-159465000D01*
X98480000Y-159465000D02*
X89480000Y-159465000D01*
X89480000Y-159465000D02*
X89480000Y-145065000D01*
D15*
X94180000Y-143765000D02*
G75*
G03*
X94180000Y-143765000I-200000J0D01*
G01*
D11*
X31190000Y-109625000D02*
X31190000Y-115165000D01*
X24690000Y-109625000D02*
X31190000Y-109625000D01*
X31190000Y-115165000D02*
X24690000Y-115165000D01*
X24690000Y-115165000D02*
X24690000Y-109625000D01*
D12*
X28040000Y-108875000D02*
G75*
G03*
X28040000Y-108875000I-100000J0D01*
G01*
D16*
X120710000Y-92135000D02*
X119380000Y-92135000D01*
X120710000Y-90805000D02*
X120710000Y-92135000D01*
X120710000Y-89535000D02*
X120710000Y-79315000D01*
X120710000Y-89535000D02*
X118050000Y-89535000D01*
X120710000Y-79315000D02*
X118050000Y-79315000D01*
X118050000Y-89535000D02*
X118050000Y-79315000D01*
D11*
X59350000Y-80010000D02*
X60350000Y-80010000D01*
X60350000Y-80010000D02*
X65150000Y-80010000D01*
X60350000Y-80010000D02*
X60350000Y-72390000D01*
X65150000Y-80010000D02*
X65150000Y-72390000D01*
X59350000Y-72390000D02*
X59350000Y-80010000D01*
X60350000Y-72390000D02*
X59350000Y-72390000D01*
X65150000Y-72390000D02*
X60350000Y-72390000D01*
D15*
X62430000Y-71700000D02*
G75*
G03*
X62430000Y-71700000I-200000J0D01*
G01*
%LPC*%
D17*
X110490000Y-106485000D03*
X110490000Y-110785000D03*
D18*
X80645000Y-145855000D03*
X80645000Y-154948200D03*
D19*
X119650000Y-106485000D03*
D20*
X119650000Y-109025000D03*
X119650000Y-111565000D03*
X119650000Y-114105000D03*
X119650000Y-116645000D03*
X119650000Y-119185000D03*
X119650000Y-139505000D03*
X119650000Y-142045000D03*
X119650000Y-144585000D03*
X119650000Y-147125000D03*
X119650000Y-149665000D03*
X119650000Y-152205000D03*
X119650000Y-154745000D03*
D21*
X44450000Y-109539999D03*
X39849999Y-109539999D03*
D22*
X27940000Y-123825000D03*
D23*
X27940000Y-126365000D03*
D24*
X41503600Y-86360000D03*
X35560000Y-86360000D03*
D21*
X44450000Y-134939999D03*
X39849999Y-134939999D03*
D18*
X80645000Y-125001600D03*
X80645000Y-115908400D03*
D24*
X75793600Y-85725000D03*
X69850000Y-85725000D03*
D25*
X27940000Y-83820000D03*
X27940000Y-86360000D03*
X27940000Y-88900000D03*
X27940000Y-73660000D03*
X27940000Y-76200000D03*
X27940000Y-78740000D03*
D22*
X27940000Y-149225000D03*
D23*
X27940000Y-151765000D03*
D26*
X62230000Y-83185000D03*
D27*
X62230000Y-85725000D03*
X62230000Y-88265000D03*
D28*
X33020000Y-29210000D03*
D29*
X35560000Y-29210000D03*
X38100000Y-29210000D03*
D22*
X27940000Y-100965000D03*
D23*
X27940000Y-103505000D03*
D18*
X107950000Y-145855000D03*
X107950000Y-154948200D03*
D24*
X41503600Y-76200000D03*
X35560000Y-76200000D03*
D30*
X82065622Y-139635810D03*
D31*
X85445600Y-136261420D03*
D30*
X80214978Y-131050610D03*
D31*
X76835000Y-134425000D03*
D21*
X44450000Y-122239999D03*
X39849999Y-122239999D03*
D32*
X175260000Y-153670000D03*
D33*
X172720000Y-153670000D03*
X170180000Y-153670000D03*
X167640000Y-153670000D03*
X165100000Y-153670000D03*
X162560000Y-153670000D03*
X160020000Y-153670000D03*
X157480000Y-153670000D03*
X152400000Y-153670000D03*
X149860000Y-153670000D03*
X147320000Y-153670000D03*
X144780000Y-153670000D03*
X142240000Y-153670000D03*
X139700000Y-153670000D03*
X139700000Y-105410000D03*
X142240000Y-105410000D03*
X144780000Y-105410000D03*
X147320000Y-105410000D03*
X149860000Y-105410000D03*
X152400000Y-105410000D03*
X154940000Y-105410000D03*
X157480000Y-105410000D03*
X161540000Y-105410000D03*
X164080000Y-105410000D03*
X166620000Y-105410000D03*
X169160000Y-105410000D03*
X171700000Y-105410000D03*
X174240000Y-105410000D03*
X176780000Y-105410000D03*
X179320000Y-105410000D03*
X181860000Y-105410000D03*
X184400000Y-105410000D03*
D21*
X44450000Y-147639999D03*
X39849999Y-147639999D03*
D18*
X107950000Y-125001600D03*
X107950000Y-115908400D03*
D28*
X43180000Y-29210000D03*
D29*
X45720000Y-29210000D03*
X48260000Y-29210000D03*
X50800000Y-29210000D03*
X53340000Y-29210000D03*
X55880000Y-29210000D03*
D19*
X66691000Y-106455500D03*
D20*
X66691000Y-108995500D03*
X66691000Y-111535500D03*
X66691000Y-114075500D03*
X66691000Y-116615500D03*
X66691000Y-119155500D03*
X66691000Y-139475500D03*
X66691000Y-142015500D03*
X66691000Y-144555500D03*
X66691000Y-147095500D03*
X66691000Y-149635500D03*
X66691000Y-152175500D03*
X66691000Y-154715500D03*
D22*
X27940000Y-93980000D03*
D23*
X27940000Y-96520000D03*
D32*
X175260000Y-26670000D03*
D33*
X172720000Y-26670000D03*
X170180000Y-26670000D03*
X167640000Y-26670000D03*
X165100000Y-26670000D03*
X162560000Y-26670000D03*
X160020000Y-26670000D03*
X157480000Y-26670000D03*
X152400000Y-26670000D03*
X149860000Y-26670000D03*
X147320000Y-26670000D03*
X144780000Y-26670000D03*
X142240000Y-26670000D03*
X139700000Y-26670000D03*
X139700000Y-74930000D03*
X142240000Y-74930000D03*
X144780000Y-74930000D03*
X147320000Y-74930000D03*
X149860000Y-74930000D03*
X152400000Y-74930000D03*
X154940000Y-74930000D03*
X157480000Y-74930000D03*
X161540000Y-74930000D03*
X164080000Y-74930000D03*
X166620000Y-74930000D03*
X169160000Y-74930000D03*
X171700000Y-74930000D03*
X174240000Y-74930000D03*
X176780000Y-74930000D03*
X179320000Y-74930000D03*
X181860000Y-74930000D03*
X184400000Y-74930000D03*
D24*
X75793600Y-76200000D03*
X69850000Y-76200000D03*
D22*
X27940000Y-136525000D03*
D23*
X27940000Y-139065000D03*
D17*
X78105000Y-106485000D03*
X78105000Y-110785000D03*
D34*
X93980000Y-145765000D03*
D35*
X93980000Y-151765000D03*
D36*
X98680000Y-148765000D03*
D22*
X27940000Y-111125000D03*
D23*
X27940000Y-113665000D03*
D30*
X108100622Y-139635810D03*
D31*
X111480600Y-136261420D03*
D30*
X106249978Y-131050610D03*
D31*
X102870000Y-134425000D03*
D28*
X119380000Y-90805000D03*
D29*
X119380000Y-88265000D03*
X119380000Y-85725000D03*
X119380000Y-83185000D03*
X119380000Y-80645000D03*
D26*
X62230000Y-73660000D03*
D27*
X62230000Y-76200000D03*
X62230000Y-78740000D03*
%LPD*%
M02*
