G04 #@! TF.GenerationSoftware,KiCad,Pcbnew,7.0.9*
G04 #@! TF.CreationDate,2024-03-05T13:31:22-05:00*
G04 #@! TF.ProjectId,sleep_rig_pcb,736c6565-705f-4726-9967-5f7063622e6b,rev?*
G04 #@! TF.SameCoordinates,Original*
G04 #@! TF.FileFunction,Legend,Bot*
G04 #@! TF.FilePolarity,Positive*
%FSLAX46Y46*%
G04 Gerber Fmt 4.6, Leading zero omitted, Abs format (unit mm)*
G04 Created by KiCad (PCBNEW 7.0.9) date 2024-03-05 13:31:22*
%MOMM*%
%LPD*%
G01*
G04 APERTURE LIST*
G04 Aperture macros list*
%AMRoundRect*
0 Rectangle with rounded corners*
0 $1 Rounding radius*
0 $2 $3 $4 $5 $6 $7 $8 $9 X,Y pos of 4 corners*
0 Add a 4 corners polygon primitive as box body*
4,1,4,$2,$3,$4,$5,$6,$7,$8,$9,$2,$3,0*
0 Add four circle primitives for the rounded corners*
1,1,$1+$1,$2,$3*
1,1,$1+$1,$4,$5*
1,1,$1+$1,$6,$7*
1,1,$1+$1,$8,$9*
0 Add four rect primitives between the rounded corners*
20,1,$1+$1,$2,$3,$4,$5,0*
20,1,$1+$1,$4,$5,$6,$7,0*
20,1,$1+$1,$6,$7,$8,$9,0*
20,1,$1+$1,$8,$9,$2,$3,0*%
G04 Aperture macros list end*
%ADD10C,0.508000*%
%ADD11RoundRect,0.102000X-0.795000X0.795000X-0.795000X-0.795000X0.795000X-0.795000X0.795000X0.795000X0*%
%ADD12C,1.794000*%
%ADD13C,2.159000*%
%ADD14RoundRect,0.102000X-0.900000X0.900000X-0.900000X-0.900000X0.900000X-0.900000X0.900000X0.900000X0*%
%ADD15C,2.004000*%
%ADD16C,1.727200*%
%ADD17RoundRect,0.076200X0.892500X-0.892500X0.892500X0.892500X-0.892500X0.892500X-0.892500X-0.892500X0*%
%ADD18C,1.937400*%
%ADD19R,1.700000X1.700000*%
%ADD20O,1.700000X1.700000*%
%ADD21R,1.600000X1.600000*%
%ADD22O,1.600000X1.600000*%
%ADD23O,5.204000X2.704000*%
%ADD24O,4.704000X2.454000*%
%ADD25O,2.454000X4.704000*%
G04 APERTURE END LIST*
D10*
X26416000Y-83820000D02*
G75*
G03*
X26416000Y-83820000I-381000J0D01*
G01*
X26416000Y-73660000D02*
G75*
G03*
X26416000Y-73660000I-381000J0D01*
G01*
%LPC*%
D11*
X119650000Y-106485000D03*
D12*
X119650000Y-109025000D03*
X119650000Y-111565000D03*
X119650000Y-114105000D03*
X119650000Y-116645000D03*
X119650000Y-119185000D03*
X119650000Y-139505000D03*
X119650000Y-142045000D03*
X119650000Y-144585000D03*
X119650000Y-147125000D03*
X119650000Y-149665000D03*
X119650000Y-152205000D03*
X119650000Y-154745000D03*
D13*
X44450000Y-109539999D03*
X39849999Y-109539999D03*
D14*
X27940000Y-123825000D03*
D15*
X27940000Y-126365000D03*
D13*
X44450000Y-134939999D03*
X39849999Y-134939999D03*
D16*
X27940000Y-83820000D03*
X27940000Y-86360000D03*
X27940000Y-88900000D03*
X27940000Y-73660000D03*
X27940000Y-76200000D03*
X27940000Y-78740000D03*
D14*
X27940000Y-149225000D03*
D15*
X27940000Y-151765000D03*
D17*
X62230000Y-83185000D03*
D18*
X62230000Y-85725000D03*
X62230000Y-88265000D03*
D19*
X33020000Y-29210000D03*
D20*
X35560000Y-29210000D03*
X38100000Y-29210000D03*
D14*
X27940000Y-100965000D03*
D15*
X27940000Y-103505000D03*
D13*
X44450000Y-122239999D03*
X39849999Y-122239999D03*
D21*
X175260000Y-153670000D03*
D22*
X172720000Y-153670000D03*
X170180000Y-153670000D03*
X167640000Y-153670000D03*
X165100000Y-153670000D03*
X162560000Y-153670000D03*
X160020000Y-153670000D03*
X157480000Y-153670000D03*
X152400000Y-153670000D03*
X149860000Y-153670000D03*
X147320000Y-153670000D03*
X144780000Y-153670000D03*
X142240000Y-153670000D03*
X139700000Y-153670000D03*
X139700000Y-105410000D03*
X142240000Y-105410000D03*
X144780000Y-105410000D03*
X147320000Y-105410000D03*
X149860000Y-105410000D03*
X152400000Y-105410000D03*
X154940000Y-105410000D03*
X157480000Y-105410000D03*
X161540000Y-105410000D03*
X164080000Y-105410000D03*
X166620000Y-105410000D03*
X169160000Y-105410000D03*
X171700000Y-105410000D03*
X174240000Y-105410000D03*
X176780000Y-105410000D03*
X179320000Y-105410000D03*
X181860000Y-105410000D03*
X184400000Y-105410000D03*
D13*
X44450000Y-147639999D03*
X39849999Y-147639999D03*
D19*
X43180000Y-29210000D03*
D20*
X45720000Y-29210000D03*
X48260000Y-29210000D03*
X50800000Y-29210000D03*
X53340000Y-29210000D03*
X55880000Y-29210000D03*
D11*
X66691000Y-106455500D03*
D12*
X66691000Y-108995500D03*
X66691000Y-111535500D03*
X66691000Y-114075500D03*
X66691000Y-116615500D03*
X66691000Y-119155500D03*
X66691000Y-139475500D03*
X66691000Y-142015500D03*
X66691000Y-144555500D03*
X66691000Y-147095500D03*
X66691000Y-149635500D03*
X66691000Y-152175500D03*
X66691000Y-154715500D03*
D14*
X27940000Y-93980000D03*
D15*
X27940000Y-96520000D03*
D21*
X175260000Y-26670000D03*
D22*
X172720000Y-26670000D03*
X170180000Y-26670000D03*
X167640000Y-26670000D03*
X165100000Y-26670000D03*
X162560000Y-26670000D03*
X160020000Y-26670000D03*
X157480000Y-26670000D03*
X152400000Y-26670000D03*
X149860000Y-26670000D03*
X147320000Y-26670000D03*
X144780000Y-26670000D03*
X142240000Y-26670000D03*
X139700000Y-26670000D03*
X139700000Y-74930000D03*
X142240000Y-74930000D03*
X144780000Y-74930000D03*
X147320000Y-74930000D03*
X149860000Y-74930000D03*
X152400000Y-74930000D03*
X154940000Y-74930000D03*
X157480000Y-74930000D03*
X161540000Y-74930000D03*
X164080000Y-74930000D03*
X166620000Y-74930000D03*
X169160000Y-74930000D03*
X171700000Y-74930000D03*
X174240000Y-74930000D03*
X176780000Y-74930000D03*
X179320000Y-74930000D03*
X181860000Y-74930000D03*
X184400000Y-74930000D03*
D14*
X27940000Y-136525000D03*
D15*
X27940000Y-139065000D03*
D23*
X93980000Y-145765000D03*
D24*
X93980000Y-151765000D03*
D25*
X98680000Y-148765000D03*
D14*
X27940000Y-111125000D03*
D15*
X27940000Y-113665000D03*
D19*
X119380000Y-90805000D03*
D20*
X119380000Y-88265000D03*
X119380000Y-85725000D03*
X119380000Y-83185000D03*
X119380000Y-80645000D03*
D17*
X62230000Y-73660000D03*
D18*
X62230000Y-76200000D03*
X62230000Y-78740000D03*
%LPD*%
M02*
