M48
; DRILL file {KiCad 7.0.9} date Tue Mar  5 13:31:41 2024
; FORMAT={-:-/ absolute / metric / decimal}
; #@! TF.CreationDate,2024-03-05T13:31:41-05:00
; #@! TF.GenerationSoftware,Kicad,Pcbnew,7.0.9
; #@! TF.FileFunction,Plated,1,2,PTH
FMAT,2
METRIC
; #@! TA.AperFunction,Plated,PTH,ComponentDrill
T1C1.000
; #@! TA.AperFunction,Plated,PTH,ComponentDrill
T2C1.060
; #@! TA.AperFunction,Plated,PTH,ComponentDrill
T3C1.190
; #@! TA.AperFunction,Plated,PTH,ComponentDrill
T4C1.200
; #@! TA.AperFunction,Plated,PTH,ComponentDrill
T5C1.219
; #@! TA.AperFunction,Plated,PTH,ComponentDrill
T6C1.651
%
G90
G05
T1
X33.02Y-29.21
X35.56Y-29.21
X38.1Y-29.21
X43.18Y-29.21
X45.72Y-29.21
X48.26Y-29.21
X50.8Y-29.21
X53.34Y-29.21
X55.88Y-29.21
X119.38Y-80.645
X119.38Y-83.185
X119.38Y-85.725
X119.38Y-88.265
X119.38Y-90.805
X139.7Y-26.67
X139.7Y-74.93
X139.7Y-105.41
X139.7Y-153.67
X142.24Y-26.67
X142.24Y-74.93
X142.24Y-105.41
X142.24Y-153.67
X144.78Y-26.67
X144.78Y-74.93
X144.78Y-105.41
X144.78Y-153.67
X147.32Y-26.67
X147.32Y-74.93
X147.32Y-105.41
X147.32Y-153.67
X149.86Y-26.67
X149.86Y-74.93
X149.86Y-105.41
X149.86Y-153.67
X152.4Y-26.67
X152.4Y-74.93
X152.4Y-105.41
X152.4Y-153.67
X154.94Y-74.93
X154.94Y-105.41
X157.48Y-26.67
X157.48Y-74.93
X157.48Y-105.41
X157.48Y-153.67
X160.02Y-26.67
X160.02Y-153.67
X161.54Y-74.93
X161.54Y-105.41
X162.56Y-26.67
X162.56Y-153.67
X164.08Y-74.93
X164.08Y-105.41
X165.1Y-26.67
X165.1Y-153.67
X166.62Y-74.93
X166.62Y-105.41
X167.64Y-26.67
X167.64Y-153.67
X169.16Y-74.93
X169.16Y-105.41
X170.18Y-26.67
X170.18Y-153.67
X171.7Y-74.93
X171.7Y-105.41
X172.72Y-26.67
X172.72Y-153.67
X174.24Y-74.93
X174.24Y-105.41
X175.26Y-26.67
X175.26Y-153.67
X176.78Y-74.93
X176.78Y-105.41
X179.32Y-74.93
X179.32Y-105.41
X181.86Y-74.93
X181.86Y-105.41
X184.4Y-74.93
X184.4Y-105.41
T2
X66.691Y-106.456
X66.691Y-108.995
X66.691Y-111.535
X66.691Y-114.075
X66.691Y-116.615
X66.691Y-119.155
X66.691Y-139.475
X66.691Y-142.016
X66.691Y-144.555
X66.691Y-147.095
X66.691Y-149.635
X66.691Y-152.175
X66.691Y-154.715
X119.65Y-106.485
X119.65Y-109.025
X119.65Y-111.565
X119.65Y-114.105
X119.65Y-116.645
X119.65Y-119.185
X119.65Y-139.505
X119.65Y-142.045
X119.65Y-144.585
X119.65Y-147.125
X119.65Y-149.665
X119.65Y-152.205
X119.65Y-154.745
T3
X62.23Y-73.66
X62.23Y-76.2
X62.23Y-78.74
X62.23Y-83.185
X62.23Y-85.725
X62.23Y-88.265
T4
X27.94Y-93.98
X27.94Y-96.52
X27.94Y-100.965
X27.94Y-103.505
X27.94Y-111.125
X27.94Y-113.665
X27.94Y-123.825
X27.94Y-126.365
X27.94Y-136.525
X27.94Y-139.065
X27.94Y-149.225
X27.94Y-151.765
T5
X27.94Y-73.66
X27.94Y-76.2
X27.94Y-78.74
X27.94Y-83.82
X27.94Y-86.36
X27.94Y-88.9
T6
X39.85Y-109.54
X39.85Y-122.24
X39.85Y-134.94
X39.85Y-147.64
X44.45Y-109.54
X44.45Y-122.24
X44.45Y-134.94
X44.45Y-147.64
T1
X95.23Y-145.765G85X92.73Y-145.765
G05
X94.98Y-151.765G85X92.98Y-151.765
G05
X98.68Y-147.765G85X98.68Y-149.765
G05
T0
M30
